<svg width="375" height="500" viewBox="0 0 375 500" fill="none" xmlns="http://www.w3.org/2000/svg">
<path d="M441 382.4H-59V382.65H441V382.4Z" fill="#E6E6E6"/>
<path d="M65.82 397.53H32.7V397.78H65.82V397.53Z" fill="#E6E6E6"/>
<path d="M22.22 397.53H3.03003V397.78H22.22V397.53Z" fill="#E6E6E6"/>
<path d="M151.55 401.21H132.36V401.46H151.55V401.21Z" fill="#E6E6E6"/>
<path d="M251.61 406.79H208.42V407.04H251.61V406.79Z" fill="#E6E6E6"/>
<path d="M199.52 406.79H193.19V407.04H199.52V406.79Z" fill="#E6E6E6"/>
<path d="M394.35 401.21H300.67V401.46H394.35V401.21Z" fill="#E6E6E6"/>
<path d="M178 337.8H-15.09C-16.6027 337.797 -18.0525 337.195 -19.1212 336.124C-20.1898 335.054 -20.79 333.603 -20.79 332.09V60.66C-20.7769 59.156 -20.1708 57.718 -19.1036 56.6582C-18.0363 55.5985 -16.5941 55.0026 -15.09 55H178C179.514 55 180.967 55.6016 182.038 56.6724C183.108 57.7433 183.71 59.1956 183.71 60.71V332.09C183.71 333.604 183.108 335.057 182.038 336.128C180.967 337.198 179.514 337.8 178 337.8V337.8ZM-15.09 55.2C-16.5364 55.2026 -17.9226 55.7791 -18.9444 56.8027C-19.9662 57.8264 -20.54 59.2136 -20.54 60.66V332.09C-20.54 333.536 -19.9662 334.924 -18.9444 335.947C-17.9226 336.971 -16.5364 337.547 -15.09 337.55H178C179.447 337.547 180.834 336.971 181.858 335.948C182.881 334.924 183.457 333.537 183.46 332.09V60.66C183.457 59.2127 182.881 57.8255 181.858 56.8021C180.834 55.7787 179.447 55.2026 178 55.2H-15.09Z" fill="#E6E6E6"/>
<path d="M394.31 337.8H201.21C199.696 337.797 198.246 337.195 197.175 336.125C196.105 335.054 195.503 333.604 195.5 332.09V60.66C195.516 59.1551 196.124 57.7171 197.193 56.6576C198.262 55.5981 199.705 55.0025 201.21 55H394.31C395.812 55.0052 397.252 55.6022 398.317 56.6617C399.382 57.7212 399.987 59.1578 400 60.66V332.09C400 333.601 399.401 335.05 398.335 336.121C397.268 337.191 395.821 337.795 394.31 337.8V337.8ZM201.21 55.2C199.763 55.2026 198.375 55.7787 197.352 56.8021C196.329 57.8255 195.753 59.2127 195.75 60.66V332.09C195.753 333.537 196.329 334.924 197.352 335.948C198.375 336.971 199.763 337.547 201.21 337.55H394.31C395.757 337.547 397.145 336.971 398.168 335.948C399.191 334.924 399.767 333.537 399.77 332.09V60.66C399.767 59.2127 399.191 57.8255 398.168 56.8021C397.145 55.7787 395.757 55.2026 394.31 55.2H201.21Z" fill="#E6E6E6"/>
<path d="M208.4 296.98H186.41V384.21H208.4V296.98Z" fill="#E0E0E0"/>
<path d="M204.22 384.21H208.4V372.33H199.84L204.22 384.21Z" fill="#FAFAFA"/>
<path d="M112.04 296.98H90.05V384.21H112.04V296.98Z" fill="#E0E0E0"/>
<path d="M208.4 296.98H108.4V376.92H208.4V296.98Z" fill="#FAFAFA"/>
<path d="M204.77 300.91V322.06H112V300.91H204.74H204.77ZM205.13 300.52H111.64V322.44H205.16V300.52H205.13Z" fill="#E0E0E0"/>
<path d="M112.57 384.21H108.4V372.33H116.95L112.57 384.21Z" fill="#FAFAFA"/>
<path d="M156.19 311.48C156.19 311.917 156.32 312.344 156.562 312.708C156.805 313.071 157.15 313.354 157.554 313.522C157.958 313.689 158.402 313.733 158.831 313.648C159.26 313.562 159.654 313.352 159.963 313.043C160.272 312.734 160.482 312.34 160.568 311.911C160.653 311.482 160.609 311.038 160.442 310.634C160.275 310.23 159.991 309.885 159.628 309.642C159.264 309.4 158.837 309.27 158.4 309.27C157.814 309.27 157.252 309.503 156.837 309.917C156.423 310.332 156.19 310.894 156.19 311.48V311.48Z" fill="#E6E6E6"/>
<path d="M204.77 326.37V347.52H112V326.37H204.74H204.77ZM205.13 325.99H111.64V347.91H205.16V326L205.13 325.99Z" fill="#E0E0E0"/>
<path d="M156.19 337C156.19 337.437 156.32 337.864 156.562 338.228C156.805 338.591 157.15 338.875 157.554 339.042C157.958 339.209 158.402 339.253 158.831 339.168C159.26 339.082 159.654 338.872 159.963 338.563C160.272 338.254 160.482 337.86 160.568 337.431C160.653 337.002 160.609 336.558 160.442 336.154C160.275 335.75 159.991 335.405 159.628 335.162C159.264 334.92 158.837 334.79 158.4 334.79C157.814 334.79 157.252 335.023 156.837 335.437C156.423 335.852 156.19 336.414 156.19 337Z" fill="#E6E6E6"/>
<path d="M204.77 351.84V373H112V351.84H204.74H204.77ZM205.13 351.45H111.64V373.38H205.16V351.45H205.13Z" fill="#E0E0E0"/>
<path d="M156.19 362.42C156.192 362.857 156.323 363.283 156.567 363.645C156.811 364.007 157.157 364.289 157.561 364.455C157.965 364.62 158.409 364.663 158.837 364.576C159.265 364.49 159.658 364.279 159.966 363.969C160.274 363.66 160.484 363.266 160.568 362.837C160.653 362.409 160.608 361.965 160.441 361.562C160.273 361.159 159.99 360.814 159.627 360.572C159.264 360.329 158.837 360.2 158.4 360.2C158.109 360.2 157.821 360.257 157.552 360.369C157.283 360.481 157.039 360.645 156.834 360.851C156.628 361.057 156.466 361.302 156.355 361.571C156.245 361.84 156.189 362.129 156.19 362.42V362.42Z" fill="#E6E6E6"/>
<path d="M98.61 246.32H76.62V384.22H98.61V246.32Z" fill="#E0E0E0"/>
<path d="M94.43 384.21H98.61V372.33H90.06L94.43 384.21Z" fill="#FAFAFA"/>
<path d="M16.4299 246.32H-5.56006V384.22H16.4299V246.32Z" fill="#E0E0E0"/>
<path d="M98.61 246.32H12.78V376.93H98.61V246.32Z" fill="#FAFAFA"/>
<path d="M94.91 250V279.57H16.48V250H94.91V250ZM95.37 249.55H16V280H95.35V249.56L95.37 249.55Z" fill="#E0E0E0"/>
<path d="M94.91 283.18V361.61H57.55V283.18H94.91ZM95.37 282.72H57.1V362.07H95.37V282.72Z" fill="#E0E0E0"/>
<path d="M53.84 283.18V361.61H16.48V283.18H53.84ZM54.29 282.72H16V362.07H54.27V282.72H54.29Z" fill="#E0E0E0"/>
<path d="M16.96 384.21H12.78V372.33H21.34L16.96 384.21Z" fill="#FAFAFA"/>
<path d="M53.48 264.8C53.478 265.239 53.6065 265.67 53.8493 266.036C54.092 266.402 54.438 266.689 54.8435 266.858C55.249 267.028 55.6956 267.073 56.1269 266.989C56.5582 266.904 56.9547 266.693 57.2662 266.383C57.5777 266.073 57.7901 265.678 57.8766 265.247C57.9631 264.816 57.9197 264.369 57.752 263.963C57.5842 263.557 57.2997 263.209 56.9344 262.965C56.5691 262.72 56.1395 262.59 55.7 262.59C55.1129 262.59 54.5498 262.823 54.1338 263.237C53.7177 263.651 53.4826 264.213 53.48 264.8Z" fill="#E6E6E6"/>
<path d="M61.4 320.53C61.4001 320.969 61.5305 321.399 61.7749 321.764C62.0193 322.13 62.3666 322.414 62.7728 322.582C63.179 322.75 63.6259 322.793 64.0568 322.707C64.4877 322.62 64.8833 322.408 65.1934 322.096C65.5034 321.785 65.7141 321.388 65.7986 320.957C65.8831 320.526 65.8377 320.079 65.6682 319.673C65.4986 319.268 65.2125 318.922 64.8461 318.679C64.4797 318.437 64.0495 318.308 63.61 318.31C63.319 318.31 63.0308 318.367 62.762 318.479C62.4932 318.591 62.2491 318.755 62.0438 318.961C61.8384 319.167 61.6759 319.412 61.5654 319.681C61.4549 319.95 61.3987 320.239 61.4 320.53V320.53Z" fill="#E6E6E6"/>
<path d="M45.57 320.53C45.5719 320.967 45.7032 321.393 45.9473 321.755C46.1913 322.117 46.5372 322.399 46.9411 322.565C47.3451 322.73 47.7892 322.773 48.2172 322.686C48.6453 322.6 49.0381 322.389 49.3462 322.079C49.6543 321.77 49.8637 321.376 49.9482 320.947C50.0327 320.519 49.9883 320.075 49.8208 319.672C49.6532 319.269 49.3699 318.924 49.0067 318.682C48.6435 318.439 48.2166 318.31 47.78 318.31C47.4889 318.31 47.2007 318.367 46.9319 318.479C46.6631 318.591 46.4191 318.755 46.2137 318.961C46.0084 319.167 45.8458 319.412 45.7353 319.681C45.6248 319.95 45.5687 320.239 45.57 320.53V320.53Z" fill="#E6E6E6"/>
<path d="M43.07 207.87H33.8C34.6543 212.367 35.1923 216.918 35.41 221.49C35.41 226.49 28.35 246.32 38.41 246.32C48.47 246.32 41.41 226.54 41.41 221.49C41.6443 216.917 42.199 212.366 43.07 207.87V207.87Z" fill="#E0E0E0"/>
<path d="M7.80005 228.15V234.15C7.81059 237.366 9.09301 240.448 11.3674 242.723C13.6418 244.997 16.7236 246.279 19.94 246.29H25.94C29.1565 246.279 32.2383 244.997 34.5127 242.723C36.7871 240.448 38.0695 237.366 38.08 234.15V228.15H7.80005Z" fill="#F5F5F5"/>
<path d="M136.67 284.26C136.67 291.26 144.5 296.98 154.07 296.98H162.71C172.28 296.98 180.11 291.26 180.11 284.26H136.67Z" fill="#E0E0E0"/>
<path d="M365.61 274C360.37 278.28 353.13 286.11 346.51 297.13C342.09 304.47 339.43 312.13 338.26 322.31C338.26 310.81 338.33 298.46 338.37 286.8C339.7 283.8 342.74 276.88 344.92 271.42C352.19 253.19 354.92 248.7 361.45 232.98C370.18 211.98 379.12 187.12 376.56 189.11C371.34 193.16 351.34 230.61 349.18 235.97C343.292 250.274 339.653 265.403 338.39 280.82C338.39 269.82 338.47 259.82 338.51 252.06C338.65 226.75 339.08 218.58 339.29 216.06C340.1 214.78 341.05 213.29 341.61 212.49C346.31 205.69 348.12 199.91 352.54 189.77C358.82 175.42 364.22 149.93 362.64 151.21C356.06 156.57 350.88 168.07 344.06 182.74C337.24 197.41 339.19 205.84 337.84 218.36C337.56 220.82 337.34 230.1 337.18 242.95C335.42 229.25 332.1 220.23 326.05 212.03C318.61 201.94 311.41 195.13 306.13 191.57C300.85 188.01 315.25 212.79 322.13 223.57C328.26 233.21 333.91 241.7 337.13 250.07C336.96 267.5 336.88 289.56 336.88 310.07C335.3 300.73 332.72 290.66 329.28 282.87C325.14 273.51 318.78 259.15 313.71 254.28C312.5 253.11 319.01 281.04 323.19 288.46C327.37 295.88 330.44 302.89 333.07 307.1C333.68 308.1 335.72 311.87 336.88 314.05C336.88 339.12 337.02 361.24 337.24 368.77H338.32C338.25 366.83 338.23 354.07 338.26 337.19C340.87 328.03 346.83 317.57 351.75 308.03C357.11 297.7 370.85 269.75 365.61 274Z" fill="#E0E0E0"/>
<path d="M353.44 384.21H322.1L319.73 353.49H355.81L353.44 384.21Z" fill="#F0F0F0"/>
<path d="M358.14 357.07H317.39L316.23 346.7H359.31L358.14 357.07Z" fill="#F5F5F5"/>
<path d="M65.26 75.5H9.20996V137.05H65.26V75.5Z" fill="#E0E0E0"/>
<path d="M71.3301 75.5H13.4301V137.05H71.3301V75.5Z" fill="#F5F5F5"/>
<path d="M66.48 132.2V80.35H18.28V132.2H66.48Z" fill="white"/>
<path d="M54.79 119.62V92.91H29.96V119.62H54.79Z" fill="#F5F5F5"/>
<path d="M351.05 82.67H298.98V139.85H351.05V82.67Z" fill="#E0E0E0"/>
<path d="M356.69 82.67H302.91V139.85H356.69V82.67Z" fill="#F5F5F5"/>
<path d="M352.19 135.34V87.18H307.42V135.34H352.19Z" fill="white"/>
<path d="M329.8 125.23C337.515 125.23 343.77 118.975 343.77 111.26C343.77 103.545 337.515 97.29 329.8 97.29C322.085 97.29 315.83 103.545 315.83 111.26C315.83 118.975 322.085 125.23 329.8 125.23Z" fill="#F5F5F5"/>
<path d="M123.49 112.2H81.91V157.86H123.49V112.2Z" fill="#E0E0E0"/>
<path d="M127.99 112.2H85.04V157.86H127.99V112.2Z" fill="#F5F5F5"/>
<path d="M124.39 154.26V115.8H88.64V154.26H124.39Z" fill="white"/>
<path d="M106.52 125.3L96.74 142.24H116.3L106.52 125.3Z" fill="#F5F5F5"/>
<path d="M191 427.56C298.082 427.56 384.89 422.492 384.89 416.24C384.89 409.988 298.082 404.92 191 404.92C83.9175 404.92 -2.89001 409.988 -2.89001 416.24C-2.89001 422.492 83.9175 427.56 191 427.56Z" fill="#F5F5F5"/>
<path d="M290.25 163.43L280.33 159.43C280.33 159.43 267.24 183.3 263.49 184.51C258.39 186.15 247.83 190.71 241.57 191.51C240.72 192.51 239.33 195.62 239.46 196.75C247.87 199.56 266.35 195.83 270.31 192.89C279.32 186.22 290.25 163.43 290.25 163.43Z" fill="#E58A7B"/>
<path d="M293.3 158C295.15 164.83 285.13 178.57 285.13 178.57L272 171.21C272 171.21 274.46 165.56 277.46 159.81C282.27 150.52 291.19 150.21 293.3 158Z" fill="#407BFF"/>
<path d="M293.3 158C295.15 164.83 285.13 178.57 285.13 178.57L272 171.21C272 171.21 274.46 165.56 277.46 159.81C282.27 150.52 291.19 150.21 293.3 158Z" fill="#FFBF00"/>
<path opacity="0.2" d="M277.21 174.15L282.38 177.05L283.29 161.18C280.28 163.49 278.16 170.45 277.21 174.15Z" fill="black"/>
<path d="M284.66 152.86C284.66 152.86 274.44 175.6 280.4 217.94H320.67C321.31 211.76 319.19 181.6 326.86 152.48C322.442 151.617 317.973 151.045 313.48 150.77C307.781 150.44 302.069 150.44 296.37 150.77C292.42 151.171 288.505 151.87 284.66 152.86V152.86Z" fill="#407BFF"/>
<path d="M284.66 152.86C284.66 152.86 274.44 175.6 280.4 217.94H320.67C321.31 211.76 319.19 181.6 326.86 152.48C322.442 151.617 317.973 151.045 313.48 150.77C307.781 150.44 302.069 150.44 296.37 150.77C292.42 151.171 288.505 151.87 284.66 152.86Z" fill="#FFBF00"/>
<g style="mix-blend-mode:multiply">
<path d="M275.32 417.14C275.26 418.22 290.53 419.09 309.42 419.09C328.31 419.09 343.69 418.22 343.75 417.14C343.81 416.06 328.55 415.2 309.65 415.2C290.75 415.2 275.39 416.07 275.32 417.14Z" fill="#E8ECF1"/>
</g>
<path d="M302.201 388.763L295.058 391.528L301.211 407.421L308.353 404.656L302.201 388.763Z" fill="#E58A7B"/>
<path d="M334.05 409.45H326.52L323.76 392.02H331.29L334.05 409.45Z" fill="#E58A7B"/>
<path d="M326 408.58H334.46C334.607 408.58 334.749 408.633 334.86 408.728C334.972 408.823 335.046 408.955 335.07 409.1L336.16 415.79C336.183 415.958 336.17 416.129 336.121 416.291C336.072 416.453 335.988 416.603 335.876 416.73C335.765 416.857 335.627 416.959 335.472 417.028C335.317 417.097 335.149 417.132 334.98 417.13C332.03 417.08 330.61 416.9 326.89 416.9C324.6 416.9 319.89 417.14 316.71 417.14C313.53 417.14 313.32 414.02 314.63 413.73C320.51 412.46 322.79 410.73 324.75 409.05C325.096 408.746 325.54 408.579 326 408.58V408.58Z" fill="#263238"/>
<path d="M301 406L309 403.66C309.143 403.62 309.295 403.63 309.431 403.688C309.568 403.746 309.68 403.849 309.75 403.98L312.75 409.98C312.82 410.132 312.855 410.298 312.854 410.465C312.853 410.633 312.816 410.798 312.744 410.949C312.673 411.101 312.569 411.235 312.441 411.342C312.312 411.449 312.162 411.527 312 411.57C309.09 412.37 307.14 412.86 303.5 413.92C300.99 414.65 298.43 415.84 295.95 416.63C294.23 417.18 290.19 417.2 288.1 417.2C285.01 417.2 284.32 413.94 285.65 413.79C289 413.42 289.45 413.59 291.3 412.66C294.327 411.337 297.071 409.442 299.38 407.08C299.816 406.584 300.374 406.211 301 406V406Z" fill="#263238"/>
<path d="M242.83 191.47L234.55 188L231.14 197.18C234.534 197.697 237.986 197.697 241.38 197.18L242.83 191.47Z" fill="#E58A7B"/>
<path d="M228.39 187.76L228.17 193.86L231.14 197.16L234.55 187.98L228.39 187.76Z" fill="#E58A7B"/>
<path d="M303.18 390.112L296.016 392.878L299.189 401.097L306.353 398.331L303.18 390.112Z" fill="#CF6F64"/>
<path d="M331.29 392.02H323.76L325.19 401.01H332.72L331.29 392.02Z" fill="#CF6F64"/>
<path opacity="0.2" d="M279.12 206.49C279.27 208.3 279.44 210.15 279.66 212.05L309.6 202.33C314.276 200.944 318.339 198.006 321.12 194C321.24 191.33 321.39 188.52 321.62 185.59C321.72 184.17 321.84 182.71 321.97 181.23C322.1 179.75 322.28 178.11 322.47 176.53L279.12 206.49Z" fill="black"/>
<path d="M288.9 173.69L287.9 173.57C288.49 168.57 292.22 164.63 296.15 164.73V165.73C292.71 165.66 289.43 169.21 288.9 173.69Z" fill="white"/>
<path d="M294.23 182.92H294.06V181.92C297.5 182.05 300.73 178.46 301.26 173.99L302.26 174.11C301.73 179 298.12 182.92 294.23 182.92Z" fill="white"/>
<path d="M312.92 131.5C311.51 137.01 309.85 147.1 313.48 150.77C313.48 150.77 310.94 156.36 300.71 156.36C291.36 156.36 296.37 150.77 296.37 150.77C302.59 149.31 302.7 144.77 301.88 140.47L312.92 131.5Z" fill="#E58A7B"/>
<path d="M308.42 135.16L301.89 140.47C302.092 141.458 302.21 142.462 302.24 143.47C304.15 145.37 307.98 140.56 308.37 138.1C308.568 137.132 308.585 136.135 308.42 135.16Z" fill="#CF6F64"/>
<path d="M290.66 131.43C291.114 132.218 291.726 132.903 292.458 133.443C293.189 133.983 294.024 134.367 294.91 134.57C297.31 135.1 298.51 132.89 297.85 130.67C297.26 128.67 295.29 125.98 292.85 126.44C292.327 126.548 291.838 126.779 291.423 127.115C291.008 127.45 290.68 127.88 290.465 128.369C290.251 128.858 290.157 129.391 290.191 129.923C290.224 130.456 290.385 130.972 290.66 131.43V131.43Z" fill="#CF6F64"/>
<path d="M294.63 113.8C290.89 115.51 289.57 130.37 294.27 132.57C298.97 134.77 301.71 110.55 294.63 113.8Z" fill="#263238"/>
<path d="M314.06 123.21C313.16 130.67 313.06 135.06 309.06 138.88C307.82 140.148 306.255 141.048 304.536 141.482C302.817 141.916 301.011 141.866 299.319 141.339C297.626 140.811 296.112 139.826 294.944 138.492C293.776 137.158 293 135.527 292.7 133.78C291.49 127.08 293.16 116.01 300.64 113.04C302.212 112.347 303.94 112.087 305.646 112.286C307.352 112.486 308.974 113.138 310.343 114.176C311.712 115.213 312.778 116.598 313.432 118.187C314.086 119.775 314.302 121.509 314.06 123.21V123.21Z" fill="#E58A7B"/>
<path d="M301.77 117.66C307.31 116.25 311.38 115.29 309.92 119.9C307.99 126.06 305.67 132.02 308.78 132.29C310.68 132.46 319.08 128.9 318.01 125.29C317.08 122.15 321.01 121.29 321.71 119.7C324.3 113.94 316.89 114.7 318.21 111.2C319.53 107.7 312.21 102.06 308.21 104.87C301.7 109.41 290.53 109.34 296.4 101.87C300.61 96.54 293.1 97.63 293.1 97.63C293.1 97.63 297.64 100.32 290 104.48C281.92 108.92 289.33 120.85 301.77 117.66Z" fill="#263238"/>
<path d="M317 131.43C315.906 133.013 314.263 134.132 312.39 134.57C309.92 135.1 308.97 132.89 309.9 130.67C310.73 128.67 313.01 125.98 315.37 126.44C317.73 126.9 318.27 129.47 317 131.43Z" fill="#E58A7B"/>
<path d="M280.4 217.94C280.4 217.94 273.64 278.44 273.11 301.4C272.57 325.28 296.02 399.79 296.02 399.79L308.02 394.79C308.02 394.79 294.02 326.71 296.02 303.26C298.14 277.69 306.9 217.98 306.9 217.98L280.4 217.94Z" fill="black"/>
<path opacity="0.2" d="M297.2 234.55C291.81 245.73 295.44 267.84 298.36 280.94C299.47 271.69 300.79 261.65 302.04 252.36C301.92 238.08 300.81 227.05 297.2 234.55Z" fill="black"/>
<path d="M307.49 390.83C307.55 390.83 308.91 394.65 308.91 394.65L295.07 400.47L292.89 396.41L307.49 390.83Z" fill="#407BFF"/>
<path d="M294.69 217.94C294.69 217.94 299.86 275.48 303.28 297.03C307.04 320.64 321.78 399.27 321.78 399.27H335.57C335.57 399.27 327.31 322.55 325.75 299.17C324.05 273.81 320.67 217.94 320.67 217.94H294.69Z" fill="black"/>
<path d="M335.78 395.68C335.84 395.68 336.24 399.53 336.24 399.53H321.08L320 395.11L335.78 395.68Z" fill="#407BFF"/>
<path d="M330.5 391.12C330.469 391.12 330.438 391.109 330.415 391.089C330.391 391.069 330.375 391.041 330.37 391.01C330.29 390.31 322.84 321.01 321.44 300.01C319.92 277.23 316.86 226.7 316.83 226.19C316.829 226.173 316.831 226.157 316.836 226.141C316.842 226.125 316.85 226.111 316.861 226.099C316.873 226.086 316.886 226.077 316.902 226.07C316.917 226.063 316.933 226.06 316.95 226.06V226.06C316.983 226.06 317.014 226.072 317.039 226.094C317.063 226.117 317.077 226.147 317.08 226.18C317.08 226.69 320.17 277.18 321.69 300C323.09 321 330.54 390.25 330.61 391C330.613 391.017 330.612 391.033 330.608 391.05C330.604 391.066 330.596 391.081 330.586 391.094C330.576 391.108 330.563 391.118 330.548 391.126C330.533 391.134 330.517 391.139 330.5 391.14V391.12Z" fill="black"/>
<path d="M302.62 125.29C302.62 125.9 302.24 126.39 301.84 126.39C301.44 126.39 301.15 125.9 301.19 125.29C301.23 124.68 301.57 124.19 301.97 124.19C302.37 124.19 302.66 124.69 302.62 125.29Z" fill="#263238"/>
<path d="M295.76 125.29C295.76 125.9 295.37 126.39 294.98 126.39C294.59 126.39 294.29 125.9 294.32 125.29C294.35 124.68 294.71 124.19 295.11 124.19C295.51 124.19 295.8 124.69 295.76 125.29Z" fill="#263238"/>
<path d="M297.92 125.6C297.085 127.463 296.009 129.208 294.72 130.79C295.72 131.79 297.59 131.33 297.59 131.33L297.92 125.6Z" fill="#DF5753"/>
<path d="M298.1 133.88C298.077 133.88 298.054 133.875 298.033 133.866C298.011 133.857 297.992 133.844 297.976 133.827C297.96 133.81 297.948 133.79 297.94 133.768C297.932 133.746 297.929 133.723 297.93 133.7C297.933 133.651 297.954 133.606 297.989 133.572C298.024 133.539 298.071 133.52 298.12 133.52C298.885 133.525 299.641 133.359 300.333 133.034C301.025 132.708 301.636 132.232 302.12 131.64C302.155 131.61 302.199 131.593 302.245 131.593C302.291 131.593 302.335 131.61 302.37 131.64C302.402 131.674 302.42 131.718 302.42 131.765C302.42 131.812 302.402 131.856 302.37 131.89C301.852 132.519 301.2 133.025 300.461 133.369C299.722 133.714 298.915 133.888 298.1 133.88V133.88Z" fill="#263238"/>
<path d="M303.84 123.45C303.792 123.475 303.739 123.487 303.685 123.487C303.631 123.487 303.578 123.475 303.53 123.45C303.156 123.208 302.73 123.058 302.287 123.011C301.844 122.964 301.396 123.022 300.98 123.18C300.939 123.2 300.895 123.212 300.85 123.215C300.805 123.218 300.759 123.212 300.716 123.197C300.673 123.182 300.634 123.159 300.6 123.128C300.567 123.098 300.539 123.061 300.52 123.02C300.483 122.931 300.482 122.831 300.517 122.741C300.553 122.652 300.622 122.579 300.71 122.54C301.233 122.326 301.799 122.242 302.362 122.294C302.924 122.347 303.465 122.534 303.94 122.84C303.978 122.866 304.011 122.899 304.036 122.938C304.062 122.977 304.079 123.021 304.087 123.066C304.096 123.112 304.095 123.159 304.085 123.204C304.075 123.249 304.057 123.292 304.03 123.33C303.979 123.387 303.914 123.429 303.84 123.45V123.45Z" fill="#263238"/>
<path d="M293.11 121.45C293.057 121.437 293.008 121.409 292.97 121.37C292.937 121.337 292.91 121.299 292.892 121.256C292.874 121.213 292.865 121.167 292.865 121.12C292.865 121.073 292.874 121.027 292.892 120.984C292.91 120.941 292.937 120.903 292.97 120.87C293.353 120.44 293.831 120.105 294.365 119.889C294.899 119.674 295.476 119.586 296.05 119.63C296.096 119.637 296.14 119.654 296.179 119.678C296.219 119.703 296.253 119.736 296.279 119.774C296.305 119.813 296.323 119.856 296.332 119.902C296.341 119.948 296.34 119.995 296.33 120.04C296.309 120.133 296.254 120.214 296.177 120.269C296.099 120.325 296.005 120.35 295.91 120.34V120.34C295.456 120.311 295.001 120.387 294.58 120.56C294.159 120.733 293.783 121 293.48 121.34C293.434 121.391 293.376 121.428 293.311 121.447C293.245 121.466 293.176 121.467 293.11 121.45V121.45Z" fill="#263238"/>
<path d="M330.73 162.32L320.33 159.55C320.33 159.55 310.13 184.66 306.52 186.29C301.62 188.53 289.21 196.29 283.93 199.96C283.64 201.21 283.87 204.52 284.53 205.43C293.53 203.79 310.76 197.16 314.36 193.79C322.57 186.1 330.73 162.32 330.73 162.32Z" fill="#E58A7B"/>
<path d="M323.47 409.9C322.963 409.94 322.457 409.802 322.04 409.51C321.911 409.394 321.815 409.246 321.761 409.081C321.706 408.916 321.696 408.74 321.73 408.57C321.736 408.464 321.771 408.361 321.831 408.273C321.891 408.185 321.974 408.115 322.07 408.07C322.91 407.64 325.26 409.13 325.53 409.3C325.56 409.318 325.583 409.346 325.595 409.378C325.608 409.411 325.61 409.446 325.6 409.48C325.591 409.515 325.574 409.547 325.55 409.573C325.525 409.6 325.494 409.619 325.46 409.63C324.808 409.79 324.141 409.881 323.47 409.9ZM322.47 408.34C322.394 408.323 322.316 408.323 322.24 408.34C322.202 408.359 322.17 408.39 322.149 408.427C322.127 408.464 322.117 408.507 322.12 408.55C322.093 408.666 322.098 408.788 322.133 408.902C322.168 409.016 322.233 409.119 322.32 409.2C322.71 409.55 323.69 409.59 324.98 409.34C324.212 408.834 323.347 408.494 322.44 408.34H322.47Z" fill="#407BFF"/>
<path d="M325.41 409.63C325.384 409.638 325.356 409.638 325.33 409.63C324.58 409.21 323.17 407.56 323.38 406.72C323.411 406.587 323.487 406.468 323.594 406.383C323.701 406.298 323.833 406.251 323.97 406.25C324.104 406.232 324.241 406.243 324.37 406.283C324.5 406.323 324.619 406.39 324.72 406.48C325.55 407.19 325.6 409.37 325.6 409.48C325.605 409.513 325.599 409.546 325.582 409.575C325.566 409.604 325.541 409.627 325.51 409.64C325.476 409.647 325.442 409.643 325.41 409.63ZM324.07 406.58H324C323.77 406.58 323.74 406.71 323.73 406.76C323.61 407.25 324.5 408.5 325.24 409.09C325.237 408.245 324.975 407.422 324.49 406.73C324.374 406.629 324.224 406.575 324.07 406.58V406.58Z" fill="#407BFF"/>
<path d="M296.92 408.65C296.308 408.863 295.642 408.863 295.03 408.65C294.891 408.575 294.773 408.466 294.688 408.333C294.602 408.2 294.551 408.048 294.54 407.89C294.527 407.791 294.54 407.691 294.577 407.598C294.613 407.505 294.673 407.423 294.75 407.36C295.55 406.64 298.82 407.36 299.19 407.5C299.225 407.509 299.256 407.53 299.278 407.559C299.3 407.588 299.311 407.624 299.31 407.66C299.312 407.698 299.302 407.735 299.282 407.767C299.263 407.799 299.234 407.824 299.2 407.84C298.464 408.172 297.701 408.443 296.92 408.65V408.65ZM295.29 407.46C295.176 407.483 295.069 407.535 294.98 407.61C294.948 407.634 294.924 407.666 294.91 407.703C294.895 407.741 294.892 407.781 294.9 407.82C294.907 407.925 294.939 408.027 294.995 408.116C295.051 408.205 295.128 408.278 295.22 408.33C295.75 408.61 296.98 408.39 298.57 407.72C297.499 407.45 296.39 407.362 295.29 407.46V407.46Z" fill="#407BFF"/>
<path d="M299.17 407.84H299.09C298.09 407.66 296.09 406.51 296.03 405.65C296.03 405.45 296.12 405.17 296.6 405.01C296.762 404.952 296.934 404.928 297.106 404.938C297.278 404.948 297.446 404.993 297.6 405.07C298.68 405.6 299.25 407.52 299.28 407.61C299.287 407.64 299.286 407.672 299.277 407.702C299.269 407.731 299.252 407.758 299.23 407.78C299.215 407.805 299.195 407.825 299.17 407.84V407.84ZM296.8 405.31H296.7C296.39 405.42 296.39 405.55 296.39 405.59C296.39 406.11 297.84 407.06 298.85 407.38C298.617 406.577 298.125 405.873 297.45 405.38C297.249 405.278 297.018 405.253 296.8 405.31Z" fill="#407BFF"/>
<path d="M284.78 199.37L274.35 204.17L273.14 207.17L276.99 209.76C276.99 209.76 284.19 208.98 286.24 204.35L284.78 199.37Z" fill="#E58A7B"/>
<path d="M285.22 205.6C284.987 203.596 284.325 201.666 283.28 199.94L284.93 198.7C286.171 200.688 286.963 202.924 287.25 205.25L285.22 205.6Z" fill="#263238"/>
<path d="M287 200.79C287.22 201.137 287.329 201.543 287.31 201.954C287.292 202.364 287.147 202.759 286.896 203.084C286.645 203.41 286.3 203.65 285.908 203.772C285.515 203.895 285.095 203.893 284.703 203.768C284.312 203.643 283.968 203.4 283.72 203.073C283.471 202.746 283.329 202.35 283.314 201.939C283.298 201.529 283.409 201.123 283.632 200.778C283.855 200.433 284.179 200.165 284.56 200.01C284.987 199.792 285.484 199.752 285.94 199.898C286.397 200.044 286.778 200.365 287 200.79V200.79Z" fill="#263238"/>
<path d="M267.3 208.05L268.69 209.45L278.05 205.45L274.35 204.17L267.3 208.05Z" fill="#E58A7B"/>
<path opacity="0.2" d="M307.49 390.83C307.55 390.83 308.91 394.65 308.91 394.65L295.07 400.47L292.89 396.41L307.49 390.83Z" fill="black"/>
<path opacity="0.2" d="M335.78 395.68C335.84 395.68 336.24 399.53 336.24 399.53H321.08L320 395.11L335.78 395.68Z" fill="black"/>
<path d="M333.44 159.44C336.19 168.31 325.44 180.44 325.44 180.44L310.59 174.38C312.35 169.253 314.38 164.223 316.67 159.31C321.23 149.48 330.66 150.49 333.44 159.44Z" fill="#407BFF"/>
<path d="M333.44 159.44C336.19 168.31 325.44 180.44 325.44 180.44L310.59 174.38C312.35 169.253 314.38 164.223 316.67 159.31C321.23 149.48 330.66 150.49 333.44 159.44Z" fill="#FFBF00"/>
<path d="M185.88 70.57H179.49V71.6H185.88V70.57Z" fill="#407BFF"/>
<path d="M268.598 111.337L267.825 128.499L268.854 128.545L269.627 111.383L268.598 111.337Z" fill="#407BFF"/>
<path d="M266.61 75.19H148.61L137.63 320.91H255.63L266.61 75.19Z" fill="#407BFF"/>
<path opacity="0.56" d="M263.09 78.57H145.09L134.11 324.29H252.11L263.09 78.57Z" fill="#FAFAFA"/>
<path opacity="0.07" d="M259.57 81.94H141.57L130.58 327.66H248.58L259.57 81.94Z" fill="#407BFF"/>
<path d="M246.14 189.11H145.42L144.58 207.91H245.3L246.14 189.11Z" fill="white"/>
<path d="M200.81 175.39H146.03L145.66 183.8H200.44L200.81 175.39Z" fill="#407BFF"/>
<path d="M243.87 239.85H143.15L142.31 258.65H243.03L243.87 239.85Z" fill="white"/>
<path opacity="0.47" d="M225.4 284.04H157.67L156.66 306.57H224.39L225.4 284.04Z" fill="#407BFF"/>
<path d="M220.87 310.07H153.14C153.111 310.078 153.08 310.078 153.05 310.07C153.04 310.041 153.04 310.009 153.05 309.98L154.05 287.44C154.05 287.425 154.053 287.409 154.059 287.395C154.065 287.381 154.074 287.369 154.086 287.358C154.097 287.348 154.11 287.34 154.125 287.335C154.139 287.33 154.155 287.329 154.17 287.33H221.9C221.912 287.324 221.926 287.321 221.94 287.321C221.954 287.321 221.968 287.324 221.98 287.33C221.987 287.342 221.991 287.356 221.991 287.37C221.991 287.384 221.987 287.398 221.98 287.41L221 310C220.988 310.023 220.969 310.043 220.946 310.055C220.923 310.068 220.896 310.073 220.87 310.07V310.07ZM153.26 309.83H220.75L221.75 287.53H154.26L153.26 309.83Z" fill="white"/>
<path d="M188.98 226.13H143.76L143.39 234.55H188.6L188.98 226.13Z" fill="#407BFF"/>
<path d="M156.27 198.51C156.222 199.316 155.87 200.073 155.286 200.63C154.701 201.187 153.927 201.501 153.12 201.51C152.73 201.515 152.344 201.439 151.984 201.289C151.625 201.138 151.3 200.915 151.03 200.634C150.76 200.353 150.551 200.019 150.415 199.654C150.279 199.289 150.22 198.899 150.24 198.51C150.283 197.703 150.634 196.942 151.219 196.384C151.805 195.827 152.581 195.514 153.39 195.51C153.779 195.507 154.165 195.583 154.524 195.734C154.883 195.886 155.207 196.108 155.477 196.389C155.746 196.67 155.956 197.003 156.092 197.368C156.229 197.732 156.289 198.121 156.27 198.51V198.51Z" fill="#263238"/>
<path d="M169.75 198.51C169.704 199.317 169.353 200.076 168.768 200.633C168.183 201.19 167.408 201.504 166.6 201.51C166.211 201.513 165.826 201.437 165.467 201.286C165.109 201.134 164.786 200.911 164.517 200.63C164.248 200.349 164.039 200.016 163.904 199.651C163.769 199.287 163.71 198.898 163.73 198.51C163.773 197.704 164.122 196.945 164.706 196.388C165.289 195.83 166.063 195.516 166.87 195.51C167.26 195.505 167.646 195.581 168.006 195.731C168.365 195.882 168.69 196.105 168.96 196.386C169.23 196.667 169.439 197.001 169.575 197.366C169.711 197.731 169.771 198.121 169.75 198.51V198.51Z" fill="#263238"/>
<path d="M183.24 198.51C183.194 199.317 182.843 200.076 182.258 200.633C181.673 201.19 180.898 201.504 180.09 201.51C179.701 201.513 179.315 201.437 178.956 201.286C178.597 201.134 178.273 200.912 178.003 200.631C177.734 200.35 177.524 200.017 177.388 199.652C177.251 199.288 177.191 198.899 177.21 198.51C177.256 197.703 177.607 196.944 178.192 196.387C178.777 195.83 179.552 195.516 180.36 195.51C180.75 195.505 181.136 195.581 181.496 195.731C181.855 195.882 182.18 196.105 182.45 196.386C182.72 196.667 182.929 197.001 183.065 197.366C183.201 197.731 183.261 198.121 183.24 198.51V198.51Z" fill="#263238"/>
<path d="M154 249.25C153.952 250.056 153.6 250.813 153.016 251.37C152.431 251.927 151.657 252.241 150.85 252.25C150.461 252.253 150.075 252.177 149.716 252.026C149.357 251.874 149.033 251.652 148.763 251.371C148.494 251.09 148.284 250.757 148.148 250.392C148.011 250.028 147.951 249.639 147.97 249.25C148.016 248.443 148.367 247.684 148.952 247.127C149.537 246.57 150.312 246.256 151.12 246.25C151.509 246.247 151.895 246.323 152.254 246.474C152.613 246.626 152.937 246.848 153.207 247.129C153.476 247.41 153.686 247.743 153.822 248.108C153.959 248.472 154.019 248.861 154 249.25Z" fill="#263238"/>
<path d="M167.48 249.25C167.434 250.055 167.085 250.813 166.502 251.369C165.919 251.926 165.146 252.241 164.34 252.25C163.95 252.255 163.564 252.179 163.204 252.029C162.845 251.878 162.52 251.655 162.25 251.374C161.98 251.093 161.771 250.759 161.635 250.394C161.499 250.029 161.439 249.639 161.46 249.25C161.506 248.443 161.857 247.684 162.442 247.127C163.027 246.57 163.802 246.256 164.61 246.25C164.999 246.247 165.384 246.323 165.743 246.474C166.101 246.626 166.424 246.849 166.693 247.13C166.962 247.411 167.171 247.744 167.306 248.109C167.441 248.473 167.5 248.862 167.48 249.25V249.25Z" fill="#263238"/>
<path d="M181 249.25C180.954 250.057 180.603 250.816 180.018 251.373C179.433 251.93 178.658 252.244 177.85 252.25C177.461 252.252 177.076 252.174 176.718 252.023C176.36 251.871 176.036 251.648 175.767 251.368C175.497 251.087 175.288 250.755 175.151 250.391C175.014 250.027 174.952 249.639 174.97 249.25C175.018 248.444 175.37 247.687 175.954 247.13C176.539 246.573 177.313 246.259 178.12 246.25C178.51 246.245 178.896 246.321 179.256 246.471C179.615 246.622 179.94 246.845 180.21 247.126C180.48 247.407 180.689 247.741 180.825 248.106C180.961 248.471 181.021 248.861 181 249.25V249.25Z" fill="#263238"/>
<path d="M194.46 249.25C194.412 250.056 194.06 250.813 193.476 251.37C192.891 251.927 192.117 252.241 191.31 252.25C190.921 252.252 190.536 252.174 190.178 252.023C189.82 251.871 189.496 251.648 189.227 251.368C188.957 251.087 188.748 250.755 188.611 250.391C188.474 250.027 188.412 249.639 188.43 249.25C188.478 248.444 188.83 247.687 189.414 247.13C189.999 246.573 190.773 246.259 191.58 246.25C191.969 246.247 192.355 246.323 192.714 246.474C193.073 246.626 193.397 246.848 193.667 247.129C193.936 247.41 194.146 247.743 194.282 248.108C194.419 248.472 194.479 248.861 194.46 249.25V249.25Z" fill="#263238"/>
<path d="M208 249.25C207.952 250.056 207.6 250.813 207.016 251.37C206.431 251.927 205.657 252.241 204.85 252.25C204.46 252.255 204.074 252.179 203.714 252.029C203.355 251.878 203.03 251.655 202.76 251.374C202.49 251.093 202.281 250.759 202.145 250.394C202.009 250.029 201.949 249.639 201.97 249.25C202.016 248.443 202.367 247.684 202.952 247.127C203.537 246.57 204.312 246.256 205.12 246.25C205.509 246.247 205.895 246.323 206.254 246.474C206.613 246.626 206.937 246.848 207.207 247.129C207.476 247.41 207.686 247.743 207.822 248.108C207.959 248.472 208.019 248.861 208 249.25Z" fill="#263238"/>
<path d="M71.41 212.44C70.46 214.52 69.46 216.81 68.59 219.03C67.72 221.25 66.83 223.54 66.06 225.82C64.4878 230.313 63.2904 234.929 62.48 239.62L62.26 241.09C62.239 241.342 62.2627 241.596 62.33 241.84C62.566 242.669 62.9377 243.453 63.43 244.16C64.7142 245.991 66.2039 247.668 67.87 249.16C69.6266 250.794 71.4692 252.333 73.39 253.77C75.31 255.25 77.33 256.69 79.32 258.05L77.45 261.56C72.6982 259.49 68.1879 256.904 64 253.85C61.7657 252.221 59.7493 250.312 58 248.17C56.9631 246.895 56.1545 245.45 55.61 243.9C55.2934 242.931 55.1314 241.919 55.13 240.9C55.13 240.66 55.13 240.31 55.13 240.14V239.65L55.23 238.65C55.8033 233.44 56.8988 228.301 58.5 223.31C59.28 220.85 60.11 218.4 61.06 216.01C62.01 213.62 62.99 211.28 64.2 208.85L71.41 212.44Z" fill="#E58A7B"/>
<path d="M77.91 257.43L84.98 253.85L83.15 261.61C83.15 261.61 78.3 262.97 76.05 260.61L77.91 257.43Z" fill="#E58A7B"/>
<path d="M91.45 255.12L89.57 261.54L83.15 261.61L84.98 253.85L91.45 255.12Z" fill="#E58A7B"/>
<path d="M101.43 175C101.808 176.386 102.335 177.727 103 179C102.806 179.22 102.555 179.384 102.275 179.474C101.995 179.564 101.696 179.576 101.41 179.51L101.43 175Z" fill="#DF5753"/>
<path d="M101.22 175.06C101.634 175.06 101.97 174.545 101.97 173.91C101.97 173.275 101.634 172.76 101.22 172.76C100.806 172.76 100.47 173.275 100.47 173.91C100.47 174.545 100.806 175.06 101.22 175.06Z" fill="#263238"/>
<path d="M101 172.8L102.52 172.37C102.52 172.37 101.78 173.55 101 172.8Z" fill="#263238"/>
<path d="M81.8999 182.34C82.8099 186.99 83.72 195.52 80.46 198.63C80.46 198.63 81.74 203.35 90.39 203.35C99.9 203.35 94.9299 198.63 94.9299 198.63C89.7399 197.39 89.87 193.54 90.78 189.92L81.8999 182.34Z" fill="#E58A7B"/>
<path d="M79.37 171.74C79.85 179.51 79.89 182.81 83.81 186.8C89.72 192.8 99.16 190.52 101.01 182.8C102.68 175.8 101.62 164.28 94.01 161.19C92.3396 160.502 90.5212 160.251 88.7269 160.462C86.9326 160.672 85.2217 161.337 83.756 162.393C82.2903 163.45 81.1182 164.862 80.3508 166.498C79.5833 168.133 79.2457 169.938 79.37 171.74V171.74Z" fill="#E58A7B"/>
<path d="M80.14 163C76.24 164.42 71.04 163.36 73.08 175.39C75.24 188.13 71.92 192.32 71.92 192.32C71.92 192.32 86.71 195.47 101.81 192.13C101.81 192.13 97.2001 184.07 98.4901 178.13C100.14 170.63 98.84 167.86 98.84 167.86C98.84 167.86 85.62 161 80.14 163Z" fill="#263238"/>
<path d="M96.64 175.79C96.6441 177.267 97.0671 178.713 97.86 179.96C98.92 181.58 100.17 180.96 100.48 179.24C100.76 177.73 100.55 175.06 99.2 174.02C97.85 172.98 96.66 174 96.64 175.79Z" fill="#E58A7B"/>
<path d="M76.75 164.31C75.63 161.16 80.97 156.31 92.27 158.31C103.57 160.31 104.06 169.72 104.06 169.72L101.78 167L101.88 169.86L90.27 172.09L76.75 164.31Z" fill="#263238"/>
<path d="M77.71 199.16C77.6433 198.703 77.7575 198.239 78.0284 197.865C78.2992 197.492 78.7053 197.239 79.16 197.16C82.68 196.58 90.68 195.4 94.7 195.96C97.7 196.38 98.48 198.12 98.61 199.55C98.6304 199.8 98.5969 200.052 98.5118 200.289C98.4267 200.525 98.292 200.74 98.1168 200.92C97.9415 201.1 97.7298 201.241 97.4957 201.332C97.2617 201.423 97.0108 201.464 96.76 201.45L79.38 200.67C78.9703 200.649 78.5802 200.488 78.2759 200.213C77.9716 199.937 77.7717 199.566 77.71 199.16V199.16Z" fill="#407BFF"/>
<path opacity="0.6" d="M77.71 199.16C77.6433 198.703 77.7575 198.239 78.0284 197.865C78.2992 197.492 78.7053 197.239 79.16 197.16C82.68 196.58 90.68 195.4 94.7 195.96C97.7 196.38 98.48 198.12 98.61 199.55C98.6304 199.8 98.5969 200.052 98.5118 200.289C98.4267 200.525 98.292 200.74 98.1168 200.92C97.9415 201.1 97.7298 201.241 97.4957 201.332C97.2617 201.423 97.0108 201.464 96.76 201.45L79.38 200.67C78.9703 200.649 78.5802 200.488 78.2759 200.213C77.9716 199.937 77.7717 199.566 77.71 199.16V199.16Z" fill="black"/>
<path d="M87.76 373.86L94.21 378.34L105 363.71L98.55 359.24L87.76 373.86Z" fill="#E58A7B"/>
<path d="M72.72 373.57L79.53 377.45L89.08 361.98L82.27 358.1L72.72 373.57Z" fill="#E58A7B"/>
<path d="M104.99 363.71L99.43 371.25L92.98 366.78L98.54 359.24L104.99 363.71Z" fill="#CF6F64"/>
<path d="M82.26 358.1L89.08 361.99L84.16 369.96L77.34 366.07L82.26 358.1Z" fill="#CF6F64"/>
<path d="M93.2 248C93.2 248 118.38 279.73 113.65 310.08C109.84 334.59 87.7401 367.78 87.7401 367.78L77.3501 362.62C84.6735 347.945 90.9233 332.759 96.05 317.18C97.631 312.343 98.0925 307.211 97.3995 302.17C96.7066 297.128 94.8774 292.311 92.05 288.08C79.29 269.45 58.8501 280.54 72.6001 248H93.2Z" fill="#407BFF"/>
<path d="M93.2 248C93.2 248 118.38 279.73 113.65 310.08C109.84 334.59 87.7401 367.78 87.7401 367.78L77.3501 362.62C84.6735 347.945 90.9233 332.759 96.05 317.18C97.631 312.343 98.0925 307.211 97.3995 302.17C96.7066 297.128 94.8774 292.311 92.05 288.08C79.29 269.45 58.8501 280.54 72.6001 248H93.2Z" fill="black"/>
<path opacity="0.4" d="M105.55 268.38L101.89 264.74C101.89 265.03 108.98 308.8 110.97 321.1C112.144 317.507 113.044 313.83 113.66 310.1C116 295.21 111.11 280 105.55 268.38Z" fill="black"/>
<path d="M104.44 248C104.44 248 134.76 287.88 135.62 311.79C136.33 331.79 102.62 370.54 102.62 370.54L92.82 364.2C92.82 364.2 112.55 336.68 117.52 314.2C115.6 291.92 75 248 75 248H104.44Z" fill="#407BFF"/>
<path d="M104.44 248C104.44 248 134.76 287.88 135.62 311.79C136.33 331.79 102.62 370.54 102.62 370.54L92.82 364.2C92.82 364.2 112.55 336.68 117.52 314.2C115.6 291.92 75 248 75 248H104.44Z" fill="black"/>
<path d="M66.93 200.41C63.69 201.18 60.58 212.96 60.58 212.96L73.25 221.42C73.25 221.42 77.47 212.1 75.99 208.02C74.46 203.77 71 199.44 66.93 200.41Z" fill="#FFBF00"/>
<path opacity="0.2" d="M69.41 208L68.53 218.27L73.24 221.43C74.5405 218.502 75.5034 215.436 76.11 212.29L69.41 208Z" fill="black"/>
<path d="M108.19 200.64C108.19 200.64 111.93 201.95 104.44 247.99H72.5801C73.1201 234.99 73.1301 226.99 66.9301 200.41C71.3911 199.491 75.913 198.896 80.4601 198.63C85.2772 198.285 90.1129 198.285 94.93 198.63C101.15 199.2 108.19 200.64 108.19 200.64Z" fill="#FFBF00"/>
<path d="M111.43 208C112.15 210 112.91 212.15 113.71 214.22C114.51 216.29 115.27 218.42 116.08 220.52L118.53 226.8L119.15 228.37L119.47 229.15L119.62 229.54C119.62 229.61 119.62 229.61 119.62 229.6C119.437 229.342 119.198 229.13 118.92 228.98C118.524 228.747 118.078 228.613 117.62 228.59C117.239 228.578 116.86 228.65 116.51 228.8C116.05 229.01 116.05 229.1 116.06 229.09C116.143 229.023 116.217 228.946 116.28 228.86C116.834 228.133 117.313 227.353 117.71 226.53C118.18 225.61 118.63 224.63 119.08 223.64C119.96 221.64 120.77 219.57 121.58 217.48C122.39 215.39 123.16 213.28 123.91 211.15L126.19 204.77L130.04 205.77C129.28 210.33 128.3 214.77 127.12 219.29C126.55 221.54 125.88 223.77 125.12 226.02C124.74 227.15 124.32 228.27 123.84 229.42C123.34 230.668 122.724 231.867 122 233C121.734 233.381 121.44 233.742 121.12 234.08C120.609 234.632 119.99 235.071 119.3 235.37C118.688 235.633 118.025 235.756 117.36 235.73C116.615 235.702 115.889 235.485 115.25 235.1C114.497 234.63 113.871 233.981 113.43 233.21C113.28 232.95 113.15 232.69 113.06 232.5L112.87 232.12L112.49 231.34L111.73 229.79C110.73 227.71 109.73 225.61 108.86 223.5C107.99 221.39 107.07 219.25 106.21 217.1C105.35 214.95 104.58 212.8 103.85 210.48L111.43 208Z" fill="#E58A7B"/>
<path d="M108.19 200.64C112.02 201.55 116.33 212.87 116.33 212.87L104.94 222.56C104.94 222.56 97.57 210.22 99.06 206.15C100.61 201.91 103.19 199.45 108.19 200.64Z" fill="#FFBF00"/>
<path d="M128 201.19L132 197.85L134.78 202.18L132.73 205.79C132.73 205.79 129.47 208.79 126.59 207.26C126.133 206.233 126.023 205.084 126.278 203.989C126.532 202.893 127.137 201.911 128 201.19V201.19Z" fill="#E58A7B"/>
<path d="M139.22 197.86L138.92 198.95L132.59 200.01L131.97 197.85L139.22 197.86Z" fill="#E58A7B"/>
<path d="M103.4 371.05L91.98 363.67L94.03 360.11L106.86 368L103.4 371.05Z" fill="#407BFF"/>
<path d="M84 376.93C82.9981 376.808 82.0353 376.466 81.18 375.93C81.1447 375.918 81.1142 375.895 81.0925 375.864C81.0708 375.834 81.0592 375.797 81.0592 375.76C81.0592 375.723 81.0708 375.686 81.0925 375.656C81.1142 375.625 81.1447 375.602 81.18 375.59C81.49 375.49 84.1801 374.66 84.9601 375.3C85.0477 375.373 85.1143 375.468 85.153 375.575C85.1917 375.682 85.201 375.798 85.18 375.91C85.1661 376.09 85.1065 376.264 85.0067 376.414C84.907 376.565 84.7704 376.687 84.61 376.77C84.4228 376.872 84.2134 376.927 84 376.93V376.93ZM81.75 375.83C83 376.47 84 376.7 84.48 376.46C84.5846 376.402 84.6725 376.318 84.7355 376.217C84.7986 376.115 84.8345 375.999 84.84 375.88C84.84 375.72 84.84 375.65 84.75 375.61C84.33 375.27 82.83 375.53 81.73 375.83H81.75Z" fill="#263238"/>
<path d="M81.25 376C81.1972 375.999 81.1469 375.978 81.11 375.94C81.0951 375.912 81.0873 375.881 81.0873 375.85C81.0873 375.819 81.0951 375.788 81.11 375.76C81.11 375.67 81.76 373.5 82.78 373.01C82.9102 372.951 83.0518 372.92 83.195 372.92C83.3382 372.92 83.4797 372.951 83.61 373.01C83.7504 373.054 83.872 373.144 83.9553 373.266C84.0387 373.387 84.079 373.533 84.07 373.68C84 374.58 82.17 375.82 81.33 376.03L81.25 376ZM83.19 373.27C83.0927 373.273 82.9972 373.297 82.91 373.34C82.29 373.64 81.78 374.81 81.53 375.52C82.41 375.15 83.62 374.17 83.66 373.62C83.66 373.53 83.6599 373.42 83.4299 373.32C83.3551 373.28 83.274 373.253 83.19 373.24V373.27Z" fill="#263238"/>
<path d="M98.27 381.25C97.14 381.25 95.57 379.8 94.71 378.91C94.688 378.879 94.6762 378.843 94.6762 378.805C94.6762 378.767 94.688 378.731 94.71 378.7C94.7297 378.668 94.7578 378.641 94.7913 378.624C94.8247 378.606 94.8623 378.598 94.9 378.6C95.3 378.6 98.77 379.12 99.26 380.1C99.3119 380.188 99.3393 380.288 99.3393 380.39C99.3393 380.492 99.3119 380.592 99.26 380.68C99.1865 380.833 99.0755 380.964 98.9373 381.062C98.7991 381.16 98.6383 381.221 98.47 381.24L98.27 381.25ZM95.37 379.05C96.63 380.27 97.74 380.95 98.37 380.87C98.4803 380.856 98.5854 380.814 98.6761 380.75C98.7668 380.685 98.8402 380.6 98.89 380.5C98.9124 380.466 98.9243 380.426 98.9243 380.385C98.9243 380.344 98.9124 380.304 98.89 380.27C98.63 379.73 96.78 379.27 95.37 379.05Z" fill="#263238"/>
<path d="M95.48 379C95.2555 379.006 95.031 378.99 94.81 378.95C94.7791 378.945 94.75 378.933 94.7254 378.914C94.7009 378.894 94.6818 378.869 94.67 378.84C94.6551 378.811 94.6473 378.778 94.6473 378.745C94.6473 378.712 94.6551 378.679 94.67 378.65C94.73 378.58 96.08 376.95 97.36 376.84C97.7224 376.812 98.0813 376.927 98.36 377.16C98.75 377.5 98.73 377.8 98.63 377.99C98.38 378.67 96.65 379 95.48 379ZM95.22 378.63C96.34 378.69 98.13 378.32 98.36 377.83C98.36 377.83 98.44 377.67 98.18 377.45C98.0765 377.36 97.9557 377.292 97.8249 377.251C97.6942 377.21 97.5564 377.196 97.42 377.21C96.5578 377.451 95.79 377.95 95.22 378.64V378.63Z" fill="#263238"/>
<path d="M81.52 374.92L73.04 372.52C72.8938 372.476 72.7364 372.487 72.598 372.552C72.4596 372.616 72.3499 372.73 72.29 372.87L69.43 379.3C69.3628 379.465 69.3313 379.642 69.3374 379.819C69.3436 379.997 69.3873 380.172 69.4657 380.331C69.5441 380.491 69.6554 380.632 69.7923 380.746C69.9292 380.859 70.0886 380.942 70.26 380.99C73.26 381.77 74.7 381.99 78.43 383.06C80.73 383.7 84.01 384.89 87.18 385.79C90.35 386.69 91.41 383.6 90.18 382.94C84.62 380 84.18 377.94 82.66 375.74C82.3877 375.342 81.9843 375.051 81.52 374.92V374.92Z" fill="#407BFF"/>
<path d="M94.94 377.74L87.7 372.74C87.5772 372.651 87.426 372.609 87.2748 372.624C87.1237 372.639 86.9832 372.709 86.88 372.82L82.08 377.98C81.963 378.113 81.8758 378.27 81.8241 378.44C81.7724 378.609 81.7574 378.788 81.7801 378.964C81.8028 379.14 81.8626 379.309 81.9557 379.46C82.0488 379.611 82.173 379.741 82.32 379.84C84.87 381.55 86.19 382.24 89.38 384.45C91.38 385.81 95.25 388.83 97.95 390.71C100.65 392.59 102.66 390.01 101.7 388.99C97.4 384.4 96.46 381.52 95.75 378.91C95.6268 378.437 95.3398 378.022 94.94 377.74Z" fill="#407BFF"/>
<path d="M89.07 368.44L76.02 361.95L77.37 358.41L91.31 365.25L89.07 368.44Z" fill="#407BFF"/>
<path d="M72.1001 246.12L71.0001 249C70.8901 249.22 71.1501 249.45 71.5201 249.45H104.6C104.89 249.45 105.13 249.31 105.15 249.13L105.43 246.27C105.43 246.08 105.2 245.91 104.89 245.91H72.6201C72.5229 245.901 72.425 245.915 72.3345 245.952C72.244 245.988 72.1636 246.046 72.1001 246.12V246.12Z" fill="#407BFF"/>
<path opacity="0.4" d="M72.1001 246.12L71.0001 249C70.8901 249.22 71.1501 249.45 71.5201 249.45H104.6C104.89 249.45 105.13 249.31 105.15 249.13L105.43 246.27C105.43 246.08 105.2 245.91 104.89 245.91H72.6201C72.5229 245.901 72.425 245.915 72.3345 245.952C72.244 245.988 72.1636 246.046 72.1001 246.12V246.12Z" fill="white"/>
<path d="M77.31 249.73H76.44C76.27 249.73 76.14 249.64 76.15 249.53L76.56 245.82C76.56 245.72 76.72 245.63 76.89 245.63H77.76C77.93 245.63 78.06 245.72 78.05 245.82L77.64 249.53C77.63 249.64 77.48 249.73 77.31 249.73Z" fill="#407BFF"/>
<path d="M97.71 249.73H96.85C96.68 249.73 96.55 249.64 96.56 249.53L96.96 245.82C96.96 245.72 97.13 245.63 97.3 245.63H98.16C98.33 245.63 98.47 245.72 98.45 245.82L98.05 249.53C98 249.64 97.89 249.73 97.71 249.73Z" fill="#407BFF"/>
<g style="mix-blend-mode:multiply">
<path d="M76.55 419.08C91.3457 419.08 103.34 418.211 103.34 417.14C103.34 416.069 91.3457 415.2 76.55 415.2C61.7543 415.2 49.76 416.069 49.76 417.14C49.76 418.211 61.7543 419.08 76.55 419.08Z" fill="#F5F5F5"/>
</g>
<path d="M92.87 414.4C88.13 413.02 82.8701 411.25 79.6901 409.4C79.6001 409.34 79.5001 409.31 79.4101 409.26V387.8H89C89.728 387.757 90.412 387.437 90.9122 386.907C91.4124 386.376 91.691 385.674 91.691 384.945C91.691 384.216 91.4124 383.514 90.9122 382.983C90.412 382.453 89.728 382.133 89 382.09H79.4601V284.27H73.7V382.09H64.17C63.7809 382.067 63.3912 382.124 63.0248 382.257C62.6584 382.39 62.323 382.596 62.0394 382.864C61.7557 383.131 61.5297 383.454 61.3752 383.812C61.2207 384.169 61.141 384.555 61.141 384.945C61.141 385.335 61.2207 385.721 61.3752 386.078C61.5297 386.436 61.7557 386.759 62.0394 387.026C62.323 387.294 62.6584 387.5 63.0248 387.633C63.3912 387.766 63.7809 387.823 64.17 387.8H73.7V409.23C73.61 409.23 73.52 409.31 73.43 409.37C70.2 411.25 64.98 413.02 60.24 414.37C59.9199 414.467 59.6449 414.675 59.465 414.957C59.2851 415.239 59.2121 415.576 59.2592 415.907C59.3063 416.239 59.4705 416.542 59.722 416.762C59.9734 416.983 60.2956 417.106 60.63 417.11H92.48C92.7997 417.088 93.1022 416.957 93.3371 416.74C93.5719 416.522 93.725 416.23 93.7706 415.913C93.8162 415.596 93.7517 415.272 93.5878 414.997C93.4239 414.722 93.1706 414.511 92.87 414.4Z" fill="#E0E0E0"/>
<path d="M94.34 274.31H58.78C55.9191 274.31 53.6 276.629 53.6 279.49V290.06C53.6 292.921 55.9191 295.24 58.78 295.24H94.34C97.2008 295.24 99.52 292.921 99.52 290.06V279.49C99.52 276.629 97.2008 274.31 94.34 274.31Z" fill="#407BFF"/>
<path d="M58.45 295.25V297.07C58.45 298.57 60.08 299.79 62.08 299.79H91.08C93.08 299.79 94.71 298.57 94.71 297.07V295.25H58.45Z" fill="#407BFF"/>
<path opacity="0.3" d="M58.45 295.25V297.07C58.45 298.57 60.08 299.79 62.08 299.79H91.08C93.08 299.79 94.71 298.57 94.71 297.07V295.25H58.45Z" fill="white"/>
</svg>
