<svg width="375" height="500" viewBox="0 0 375 500" fill="none" xmlns="http://www.w3.org/2000/svg">
<path d="M426 382.4H-74V382.65H426V382.4Z" fill="#EBEBEB"/>
<path d="M63.66 389.21H30.54V389.46H63.66V389.21Z" fill="#EBEBEB"/>
<path d="M137.89 398.37H97.14V398.62H137.89V398.37Z" fill="#EBEBEB"/>
<path d="M29.54 395.24H-21.54V395.49H29.54V395.24Z" fill="#EBEBEB"/>
<path d="M375.9 390.89H282.76V391.14H375.9V390.89Z" fill="#EBEBEB"/>
<path d="M273.86 390.89H267.53V391.14H273.86V390.89Z" fill="#EBEBEB"/>
<path d="M245.44 395.11H203.21V395.36H245.44V395.11Z" fill="#EBEBEB"/>
<path d="M163 337.8H-30.09C-31.6026 337.797 -33.0524 337.195 -34.1211 336.124C-35.1898 335.054 -35.79 333.603 -35.79 332.09V60.66C-35.7768 59.156 -35.1708 57.718 -34.1035 56.6582C-33.0363 55.5985 -31.594 55.0026 -30.09 55H163C164.514 55 165.967 55.6016 167.038 56.6724C168.108 57.7433 168.71 59.1956 168.71 60.71V332.09C168.71 333.604 168.108 335.057 167.038 336.128C165.967 337.198 164.514 337.8 163 337.8V337.8ZM-30.09 55.2C-31.5363 55.2026 -32.9225 55.7791 -33.9443 56.8027C-34.9661 57.8264 -35.54 59.2136 -35.54 60.66V332.09C-35.54 333.536 -34.9661 334.924 -33.9443 335.947C-32.9225 336.971 -31.5363 337.547 -30.09 337.55H163C164.447 337.547 165.835 336.971 166.858 335.948C167.881 334.924 168.457 333.537 168.46 332.09V60.66C168.457 59.2127 167.881 57.8255 166.858 56.8021C165.835 55.7787 164.447 55.2026 163 55.2H-30.09Z" fill="#EBEBEB"/>
<path d="M379.31 337.8H186.21C184.696 337.797 183.246 337.195 182.175 336.125C181.105 335.054 180.503 333.604 180.5 332.09V60.66C180.516 59.1551 181.124 57.7171 182.193 56.6576C183.262 55.5981 184.705 55.0025 186.21 55H379.31C380.812 55.0052 382.252 55.6022 383.317 56.6617C384.382 57.7212 384.987 59.1578 385 60.66V332.09C385 333.601 384.401 335.05 383.335 336.121C382.268 337.191 380.821 337.795 379.31 337.8V337.8ZM186.21 55.2C184.763 55.2026 183.375 55.7787 182.352 56.8021C181.329 57.8255 180.753 59.2127 180.75 60.66V332.09C180.753 333.537 181.329 334.924 182.352 335.948C183.375 336.971 184.763 337.547 186.21 337.55H379.31C380.757 337.547 382.145 336.971 383.168 335.948C384.191 334.924 384.767 333.537 384.77 332.09V60.66C384.767 59.2127 384.191 57.8255 383.168 56.8021C382.145 55.7787 380.757 55.2026 379.31 55.2H186.21Z" fill="#EBEBEB"/>
<path d="M353.71 127.84H289.45V230.07H353.71V127.84Z" fill="#E0E0E0"/>
<path d="M357.59 127.84H291.14V230.07H357.59V127.84Z" fill="#F5F5F5"/>
<path d="M296.71 135.3V222.62H352.02V135.3H296.71Z" fill="white"/>
<path d="M297.72 276.38H279.2V379.42H297.72V276.38Z" fill="#F0F0F0"/>
<path d="M364.28 379.42H282.76V382.4H364.28V379.42Z" fill="#F0F0F0"/>
<path d="M297.71 379.42H367.83V276.38H297.71V379.42Z" fill="#F5F5F5"/>
<path d="M359.55 283.16V324.6H306V283.16H310.62C310.904 285.25 311.934 287.167 313.52 288.558C315.106 289.949 317.141 290.72 319.25 290.73H346.3C348.41 290.721 350.447 289.95 352.034 288.559C353.621 287.168 354.653 285.251 354.94 283.16H359.55ZM360.55 282.16H354C353.966 284.181 353.138 286.108 351.696 287.524C350.253 288.941 348.312 289.733 346.29 289.73H319.25C317.23 289.73 315.291 288.937 313.851 287.521C312.41 286.105 311.584 284.18 311.55 282.16H305V325.6H360.55V282.16Z" fill="#EBEBEB"/>
<path d="M359.55 331.2V372.64H306V331.2H310.62C310.908 333.288 311.939 335.203 313.524 336.593C315.109 337.983 317.142 338.756 319.25 338.77H346.3C348.409 338.756 350.443 337.984 352.03 336.594C353.616 335.204 354.649 333.289 354.94 331.2H359.55ZM360.55 330.2H354C353.963 332.22 353.135 334.146 351.693 335.562C350.251 336.977 348.311 337.77 346.29 337.77H319.25C317.231 337.768 315.293 336.974 313.854 335.558C312.414 334.143 311.587 332.219 311.55 330.2H305V373.64H360.55V330.2Z" fill="#EBEBEB"/>
<path d="M222.11 276.38H203.59V379.42H222.11V276.38Z" fill="#F0F0F0"/>
<path d="M288.67 379.42H207.15V382.4H288.67V379.42Z" fill="#F0F0F0"/>
<path d="M222.1 379.42H292.22V276.38H222.1V379.42Z" fill="#F5F5F5"/>
<path d="M283.94 283.16V324.6H230.39V283.16H235C235.287 285.251 236.319 287.168 237.906 288.559C239.493 289.95 241.53 290.721 243.64 290.73H270.69C272.8 290.721 274.837 289.95 276.424 288.559C278.011 287.168 279.043 285.251 279.33 283.16H283.94ZM284.94 282.16H278.4C278.366 284.181 277.538 286.108 276.096 287.524C274.653 288.941 272.712 289.733 270.69 289.73H243.64C241.618 289.733 239.677 288.941 238.234 287.524C236.792 286.108 235.964 284.181 235.93 282.16H229.39V325.6H284.94V282.16Z" fill="#EBEBEB"/>
<path d="M283.94 331.2V372.64H230.39V331.2H235C235.291 333.289 236.324 335.204 237.91 336.594C239.497 337.984 241.531 338.756 243.64 338.77H270.69C272.799 338.756 274.833 337.984 276.42 336.594C278.006 335.204 279.039 333.289 279.33 331.2H283.94ZM284.94 330.2H278.4C278.363 332.22 277.535 334.146 276.093 335.562C274.651 336.977 272.711 337.77 270.69 337.77H243.64C241.619 337.77 239.679 336.977 238.237 335.562C236.795 334.146 235.967 332.22 235.93 330.2H229.39V373.64H284.94V330.2Z" fill="#EBEBEB"/>
<path d="M152.38 275.41H142.77V382.39H152.38V275.41Z" fill="#E6E6E6"/>
<path d="M155.41 275.41H148.74V382.39H155.41V275.41Z" fill="#F0F0F0"/>
<path d="M62.39 287.23H155.41V275.42H62.39V287.23Z" fill="#F0F0F0"/>
<path d="M65.68 287.22H56.07V382.39H65.68V287.22Z" fill="#E6E6E6"/>
<path d="M68.71 287.22H62.04V382.39H68.71V287.22Z" fill="#F0F0F0"/>
<path d="M0.310013 287.22H-6.35999V382.39H0.310013V287.22Z" fill="#F0F0F0"/>
<path d="M91.56 287.22H81.95V382.39H91.56V287.22Z" fill="#E6E6E6"/>
<path d="M94.59 287.22H87.92V382.39H94.59V287.22Z" fill="#F0F0F0"/>
<path d="M62.4 275.41H-12.33V287.22H62.4V275.41Z" fill="#E6E6E6"/>
<path d="M234.8 79.41H0.469971V209.87H234.8V79.41Z" fill="#E0E0E0"/>
<path d="M247.67 79.41H1.65002V209.87H247.67V79.41Z" fill="#F5F5F5"/>
<path d="M243.65 205.85V83.43L5.67001 83.43V205.85H243.65Z" fill="white"/>
<path d="M102.03 205.85L146.96 83.43H72.81L27.88 205.85H102.03Z" fill="#F5F5F5"/>
<path d="M173.4 205.85L218.33 83.43H162.4L117.47 205.85H173.4Z" fill="#F5F5F5"/>
<path d="M10.6 252.15V254.78H12.28L13.67 275.41H34.17L35.56 254.78H37.24V252.15H10.6Z" fill="#E6E6E6"/>
<path d="M16.64 201.19C16.31 189.66 27.22 188.31 41.56 190.41C55.19 192.41 58.73 186.41 58.73 186.41C58.73 186.41 62.13 213.8 43.66 220.25C26.11 226.37 17 212.74 16.64 201.19Z" fill="#E6E6E6"/>
<path d="M23.81 218.07C21.09 214.07 12.73 210.26 6.11002 223.21C1.32002 232.57 -4.72998 229.07 -4.72998 229.07C-4.72998 229.07 6.27002 245.48 18.95 240.34C31 235.45 28.6 225.15 23.81 218.07Z" fill="#E6E6E6"/>
<path d="M27.2 236.92C27.87 233.62 32.2 228.98 39.86 235.47C45.4 240.16 48.33 236.32 48.33 236.32C48.33 236.32 45.68 249.72 36.24 249.81C27.27 249.91 26 242.7 27.2 236.92Z" fill="#E6E6E6"/>
<path d="M23.15 259.89C23.0419 259.89 22.935 259.867 22.8366 259.822C22.7382 259.777 22.6507 259.712 22.58 259.63C21.17 257.97 22.32 253.98 23.91 248.47C25.91 241.39 28.51 232.58 26.35 226.19C25.155 222.816 23.7591 219.517 22.17 216.31C19.17 209.87 16.49 204.31 18.69 198.49C18.7229 198.393 18.7758 198.303 18.8451 198.227C18.9145 198.152 18.999 198.091 19.093 198.05C19.1871 198.008 19.2888 197.987 19.3916 197.987C19.4944 197.987 19.596 198.008 19.69 198.05C19.7856 198.085 19.8731 198.14 19.9473 198.209C20.0216 198.279 20.081 198.363 20.122 198.457C20.1631 198.55 20.1849 198.651 20.1863 198.753C20.1877 198.854 20.1685 198.956 20.13 199.05C18.13 204.26 20.54 209.31 23.57 215.7C25.1738 218.949 26.5894 222.288 27.81 225.7C30.11 232.54 27.5 241.59 25.39 248.87C24.15 253.16 22.87 257.6 23.76 258.65C23.824 258.725 23.8724 258.813 23.9025 258.907C23.9326 259.001 23.9438 259.1 23.9355 259.199C23.9271 259.297 23.8993 259.393 23.8538 259.481C23.8082 259.569 23.7458 259.646 23.67 259.71C23.5274 259.836 23.3403 259.901 23.15 259.89V259.89Z" fill="#E6E6E6"/>
<path d="M176 427.56C283.082 427.56 369.89 422.492 369.89 416.24C369.89 409.988 283.082 404.92 176 404.92C68.9175 404.92 -17.89 409.988 -17.89 416.24C-17.89 422.492 68.9175 427.56 176 427.56Z" fill="#F5F5F5"/>
<path d="M84.88 408.54C85.6386 408.917 86.5144 408.981 87.32 408.72C87.4371 408.627 87.5228 408.501 87.5657 408.358C87.6087 408.215 87.6067 408.062 87.56 407.92C87.5031 407.665 87.3488 407.443 87.13 407.3C85.97 406.53 82.8 407.15 82.67 407.18C82.6316 407.188 82.5965 407.208 82.5696 407.236C82.5427 407.265 82.5254 407.301 82.52 407.34C82.5159 407.377 82.5222 407.414 82.5381 407.448C82.5539 407.481 82.5789 407.51 82.61 407.53C83.3349 407.934 84.0946 408.272 84.88 408.54V408.54ZM86.58 407.46C86.6995 407.499 86.8137 407.553 86.92 407.62C86.9878 407.66 87.0467 407.714 87.0931 407.777C87.1395 407.841 87.1725 407.913 87.19 407.99C87.24 408.26 87.19 408.36 87.09 408.41C86.57 408.78 84.64 408.14 83.29 407.41C84.3798 407.216 85.4966 407.233 86.58 407.46V407.46Z" fill="#407BFF"/>
<path d="M82.65 407.55H82.73C83.78 407.44 86.15 406.4 86.3 405.49C86.3 405.28 86.3 404.98 85.79 404.76C85.6162 404.686 85.4291 404.647 85.2401 404.647C85.051 404.647 84.8639 404.686 84.69 404.76C83.45 405.24 82.57 407.23 82.53 407.31C82.5151 407.339 82.5073 407.372 82.5073 407.405C82.5073 407.438 82.5151 407.471 82.53 407.5C82.5644 407.528 82.6061 407.545 82.65 407.55V407.55ZM85.53 405.08H85.64C85.95 405.22 85.93 405.36 85.92 405.4C85.83 405.95 84.17 406.83 83.04 407.08C83.414 406.246 84.0355 405.548 84.8201 405.08C85.0488 404.993 85.3013 404.993 85.53 405.08Z" fill="#407BFF"/>
<path d="M81.79 407.08H73C72.8457 407.074 72.6952 407.128 72.5798 407.231C72.4643 407.333 72.3928 407.476 72.38 407.63L71.68 414.79C71.6691 414.973 71.6957 415.156 71.758 415.329C71.8203 415.501 71.9171 415.659 72.0425 415.793C72.1679 415.927 72.3193 416.034 72.4873 416.107C72.6554 416.181 72.8366 416.219 73.02 416.22C76.19 416.17 80.75 415.98 84.73 415.98C89.39 415.98 89.73 416.24 95.2 416.24C98.5 416.24 99 412.9 97.58 412.59C91.11 411.21 89.67 411.07 83.81 407.71C83.2009 407.332 82.5058 407.115 81.79 407.08V407.08Z" fill="#263238"/>
<path d="M41.9 409C42.7636 409.1 43.6341 408.883 44.35 408.39C44.45 408.279 44.514 408.14 44.5337 407.992C44.5533 407.844 44.5276 407.693 44.46 407.56C44.4102 407.449 44.3357 407.35 44.2421 407.273C44.1485 407.195 44.0383 407.139 43.92 407.11C42.63 406.75 39.59 408.35 39.46 408.42C39.4236 408.437 39.3924 408.464 39.3695 408.498C39.3467 408.531 39.3331 408.57 39.33 408.61C39.3312 408.647 39.3445 408.683 39.368 408.712C39.3915 408.741 39.4238 408.761 39.46 408.77C40.2649 408.919 41.0815 408.996 41.9 409ZM43.4 407.44C43.5228 407.424 43.6472 407.424 43.77 407.44C43.8434 407.453 43.9122 407.485 43.9699 407.532C44.0276 407.58 44.0724 407.641 44.1 407.71C44.2 407.94 44.1 408.06 44.1 408.13C43.65 408.65 41.61 408.66 40.1 408.45C41.1338 407.93 42.2507 407.595 43.4 407.46V407.44Z" fill="#407BFF"/>
<path d="M39.5 408.79H39.58C40.58 408.35 42.8 406.61 42.78 405.7C42.78 405.49 42.67 405.22 42.15 405.17C41.7562 405.135 41.3637 405.249 41.05 405.49C40.1973 406.344 39.6044 407.422 39.34 408.6C39.324 408.625 39.3156 408.655 39.3156 408.685C39.3156 408.715 39.324 408.745 39.34 408.77C39.3638 408.784 39.3903 408.793 39.4179 408.797C39.4454 408.8 39.4734 408.798 39.5 408.79ZM41.94 405.53H42.06C42.39 405.53 42.4 405.7 42.4 405.74C42.4 406.29 40.9 407.66 39.82 408.25C40.0554 407.308 40.5469 406.45 41.24 405.77C41.4405 405.615 41.6866 405.531 41.94 405.53V405.53Z" fill="#407BFF"/>
<path d="M36.89 407.08H28.1C27.939 407.082 27.7831 407.136 27.6565 407.236C27.5299 407.335 27.4397 407.474 27.4 407.63L25.6 414.79C25.553 414.96 25.5466 415.139 25.5813 415.312C25.616 415.485 25.6908 415.648 25.7997 415.787C25.9086 415.926 26.0486 416.038 26.2084 416.113C26.3682 416.188 26.5434 416.225 26.72 416.22C29.89 416.17 34.48 415.98 38.47 415.98C43.13 415.98 41.29 416.24 46.76 416.24C50.06 416.24 51.08 412.9 49.7 412.59C43.44 411.21 44.16 411.07 38.82 407.71C38.2475 407.325 37.5793 407.107 36.89 407.08Z" fill="#263238"/>
<path d="M75.84 203.2C75.84 203.2 66.5 265.05 62.84 288.01C59.49 309.27 45.77 378.74 41.3 400.21C41 401.68 40.92 403.04 40.13 404.21C41.19 405.57 40.35 408.43 40.35 408.43L26.35 409.85C25.9085 409.293 25.591 408.648 25.4185 407.958C25.2461 407.268 25.2227 406.549 25.35 405.85C25.49 404.85 26.81 402.96 27.08 399.68C28.87 378.02 36.83 318.68 38.85 289.87C40.75 262.82 48.07 203.21 48.07 203.21L75.84 203.2Z" fill="black"/>
<path opacity="0.3" d="M67.88 234C58.55 240.67 61.01 268.93 62.58 289.89C62.68 289.23 62.79 288.6 62.88 288C64.88 275.47 68.53 251.31 71.47 232C71 231.82 68.36 233.66 67.88 234Z" fill="black"/>
<path d="M91.12 203.2C91.12 203.2 90.52 263.4 89.83 287.96C89.21 309.67 89.15 380.58 84.72 400.77C84.27 402.83 85.32 403.24 85.12 404.06C85.0518 404.344 84.9984 404.631 84.96 404.92C84.884 405.469 84.6406 405.982 84.2631 406.388C83.8856 406.794 83.3922 407.074 82.85 407.19L72.59 409.51C72.1544 409.609 71.6976 409.536 71.3141 409.307C70.9306 409.078 70.6499 408.71 70.53 408.28C70.2144 406.941 70.0865 405.564 70.15 404.19C70.15 403.07 70.68 400.72 70.61 399.37C69.26 374.01 65.89 309.87 65.26 289.9C64.4 262.56 62.81 203.2 62.81 203.2H91.12Z" fill="black"/>
<path d="M52.47 145.44C51.01 148.14 49.47 151 48.05 153.8C46.63 156.6 45.17 159.46 43.8 162.3C43.12 163.72 42.45 165.14 41.8 166.57C41.15 168 40.52 169.42 39.92 170.84C38.7537 173.62 37.729 176.457 36.85 179.34L32.21 172.58C33.092 172.796 33.9873 172.953 34.89 173.05C35.8114 173.135 36.7387 173.135 37.66 173.05C38.6296 172.992 39.591 172.838 40.53 172.59C41.01 172.47 41.53 172.33 41.98 172.17C42.21 172.09 42.46 172.01 42.68 171.92L43.03 171.8L43.18 171.74C43.18 171.74 43.29 171.74 43.28 171.74C43.8356 171.162 44.5982 170.828 45.3999 170.812C46.2016 170.796 46.9768 171.099 47.555 171.655C48.1332 172.211 48.467 172.973 48.4829 173.775C48.4988 174.577 48.1956 175.352 47.64 175.93L47.21 176.51C47.08 176.68 46.96 176.85 46.83 177C46.57 177.31 46.31 177.59 46.04 177.89C44.3901 179.598 42.4145 180.958 40.23 181.89C38.7485 182.528 37.1931 182.978 35.6 183.23C34.0043 183.493 32.3843 183.577 30.77 183.48C30.0996 183.449 29.4418 183.287 28.8342 183.002C28.2267 182.717 27.6812 182.315 27.2289 181.819C26.7767 181.323 26.4266 180.743 26.1986 180.112C25.9706 179.48 25.8691 178.81 25.9 178.14C25.9157 177.868 25.9524 177.597 26.01 177.33L26.14 176.73C26.8923 173.314 27.8643 169.951 29.05 166.66C30.17 163.43 31.45 160.32 32.79 157.24C34.13 154.16 35.57 151.16 37.06 148.24C38.55 145.32 40.06 142.37 41.85 139.4C42.244 138.701 42.7717 138.087 43.403 137.592C44.0344 137.098 44.7569 136.732 45.5295 136.517C46.3021 136.301 47.1096 136.24 47.9058 136.337C48.702 136.434 49.4714 136.686 50.17 137.08C50.8686 137.474 51.4828 138.002 51.9775 138.633C52.4722 139.264 52.8377 139.987 53.0531 140.759C53.2686 141.532 53.3297 142.34 53.2331 143.136C53.1365 143.932 52.884 144.701 52.49 145.4L52.47 145.44Z" fill="#FFC3BD"/>
<path d="M42.08 172.52L46.8 168.87L50.8 177.25C50.8 177.25 46.91 179.64 43.28 178.25L42.08 172.52Z" fill="#FFC3BD"/>
<path d="M53.71 164.2L55.73 172.19L50.77 177.25L46.8 168.87L53.71 164.2Z" fill="#FFC3BD"/>
<path d="M82.79 106.1C82.79 106.75 83.0401 107.31 83.4601 107.35C83.8801 107.39 84.2701 106.89 84.3201 106.24C84.3701 105.59 84.08 105.04 83.65 105C83.22 104.96 82.84 105.46 82.79 106.1Z" fill="#263238"/>
<path d="M83 107.3C83.6062 109.348 84.4912 111.303 85.63 113.11C85.1605 113.387 84.636 113.557 84.0934 113.609C83.5508 113.661 83.0034 113.593 82.49 113.41L83 107.3Z" fill="#ED847E"/>
<path d="M124 143.79L123.62 134.67L114 137.4C114.18 138.954 114.7 140.449 115.525 141.778C116.35 143.108 117.458 144.239 118.77 145.09L124 143.79Z" fill="#FFC3BD"/>
<path d="M120.34 128.06L112.12 132.62L114.03 137.4L123.63 134.67L120.34 128.06Z" fill="#FFC3BD"/>
<path d="M120.19 123.34H111.38C111.16 123.344 110.948 123.428 110.786 123.578C110.624 123.727 110.522 123.931 110.5 124.15L108.87 141.09C108.859 141.192 108.869 141.296 108.901 141.394C108.932 141.492 108.984 141.582 109.053 141.659C109.122 141.735 109.207 141.796 109.301 141.838C109.395 141.879 109.497 141.901 109.6 141.9H118.4C118.621 141.894 118.832 141.809 118.996 141.661C119.159 141.512 119.264 141.309 119.29 141.09L120.91 124.15C120.925 124.048 120.917 123.944 120.887 123.845C120.857 123.746 120.806 123.655 120.738 123.578C120.669 123.501 120.585 123.44 120.49 123.399C120.396 123.358 120.293 123.338 120.19 123.34V123.34Z" fill="#407BFF"/>
<path d="M119.58 123.34H110.78C110.56 123.344 110.348 123.428 110.186 123.578C110.024 123.727 109.922 123.931 109.9 124.15L108.27 141.09C108.259 141.192 108.269 141.296 108.301 141.394C108.332 141.492 108.384 141.582 108.453 141.659C108.522 141.735 108.607 141.796 108.701 141.838C108.795 141.879 108.897 141.901 109 141.9H117.8C118.02 141.894 118.23 141.809 118.392 141.66C118.554 141.511 118.656 141.309 118.68 141.09L120.31 124.15C120.323 124.047 120.314 123.943 120.283 123.844C120.252 123.746 120.2 123.655 120.131 123.578C120.061 123.501 119.976 123.44 119.881 123.399C119.786 123.358 119.683 123.338 119.58 123.34V123.34Z" fill="#407BFF"/>
<path d="M109 141.55C108.947 141.552 108.895 141.542 108.847 141.521C108.798 141.5 108.755 141.469 108.72 141.43C108.685 141.389 108.658 141.341 108.643 141.29C108.627 141.238 108.623 141.184 108.63 141.13L110.26 124.19C110.274 124.055 110.337 123.931 110.436 123.839C110.536 123.747 110.665 123.694 110.8 123.69H119.6C119.652 123.689 119.703 123.698 119.751 123.717C119.799 123.736 119.843 123.764 119.88 123.8C119.914 123.841 119.94 123.889 119.956 123.941C119.971 123.992 119.976 124.047 119.97 124.1L118.34 141.1C118.326 141.235 118.263 141.359 118.164 141.451C118.064 141.543 117.935 141.596 117.8 141.6L109 141.55Z" fill="white"/>
<path d="M117.31 132.55C117.231 133.396 116.854 134.187 116.246 134.78C115.638 135.374 114.838 135.732 113.99 135.79C113.597 135.797 113.208 135.719 112.849 135.56C112.49 135.401 112.17 135.166 111.911 134.871C111.652 134.576 111.46 134.228 111.35 133.851C111.239 133.475 111.212 133.078 111.27 132.69C111.349 131.844 111.726 131.053 112.334 130.459C112.943 129.866 113.742 129.508 114.59 129.45C114.983 129.441 115.373 129.518 115.733 129.676C116.093 129.834 116.414 130.07 116.674 130.365C116.933 130.661 117.124 131.009 117.234 131.387C117.344 131.764 117.37 132.161 117.31 132.55Z" fill="#407BFF"/>
<path d="M122.14 137.21C120.382 135.101 118.862 132.804 117.61 130.36C117.095 130.595 116.684 131.011 116.455 131.529C116.227 132.047 116.196 132.631 116.37 133.17C116.74 134.28 118.15 137.17 118.15 137.17C118.15 137.17 117.47 140.64 118.75 143.06C120.03 145.48 122.14 137.21 122.14 137.21Z" fill="#FFC3BD"/>
<path d="M80.72 102.3C80.6291 102.271 80.5513 102.211 80.5 102.13C80.4732 102.088 80.4552 102.04 80.4472 101.991C80.4392 101.941 80.4414 101.891 80.4536 101.842C80.4657 101.794 80.4876 101.748 80.518 101.708C80.5483 101.668 80.5864 101.635 80.63 101.61C81.1424 101.285 81.7259 101.09 82.3305 101.042C82.935 100.993 83.5423 101.092 84.1 101.33C84.1456 101.351 84.1864 101.382 84.2199 101.419C84.2534 101.457 84.2789 101.501 84.2948 101.548C84.3107 101.596 84.3167 101.647 84.3125 101.697C84.3082 101.747 84.2938 101.796 84.27 101.84C84.225 101.928 84.1477 101.994 84.0544 102.026C83.9611 102.058 83.8592 102.052 83.77 102.01V102.01C83.3251 101.828 82.8431 101.756 82.3646 101.8C81.886 101.843 81.4249 102.001 81.02 102.26C80.9762 102.289 80.9265 102.307 80.8746 102.314C80.8226 102.321 80.7698 102.316 80.72 102.3V102.3Z" fill="#263238"/>
<path d="M61.56 113.38C62.76 119.27 63.51 127.43 59.42 131.38C59.42 131.38 61.0801 137.38 72.0201 137.38C84.0201 137.38 77.7701 132.14 77.7701 132.14C72.7701 130.58 72.77 124.88 73.87 120.31L61.56 113.38Z" fill="#FFC3BD"/>
<path d="M57.2 135.3C56.11 133.79 56.12 128.99 57.26 128.14C59.1 126.78 67 126.46 77.66 128.91C76.55 133.56 79 136 79 136L57.2 135.3Z" fill="#407BFF"/>
<path d="M45 133.19C37.46 134.92 32.4 155.05 32.4 155.05L46.62 165.73C50.5198 161.549 53.2542 156.418 54.55 150.85C57.09 140.75 52.72 131.42 45 133.19Z" fill="#263238"/>
<path d="M45 133.19C37.46 134.92 32.4 155.05 32.4 155.05L46.62 165.73C50.5198 161.549 53.2542 156.418 54.55 150.85C57.09 140.75 52.72 131.42 45 133.19Z" fill="#FFBF00"/>
<path d="M89.43 139C93.57 143.61 97.51 148.28 101.43 152.82C103.43 155.09 105.43 157.33 107.43 159.45C109.272 161.483 111.261 163.378 113.38 165.12C113.783 165.444 114.203 165.744 114.64 166.02C114.97 166.24 115.27 166.32 114.95 166.28C114.569 166.248 114.186 166.288 113.82 166.4C113.506 166.495 113.206 166.633 112.93 166.81C112.732 166.929 112.55 167.074 112.39 167.24C112.3 167.4 112.52 167.24 112.72 166.86C113.282 165.874 113.722 164.823 114.03 163.73C114.41 162.47 114.76 161.12 115.03 159.73C116.22 154.13 117.03 148.06 117.73 142.12L123.78 141.98C124.71 148.302 124.978 154.703 124.58 161.08C124.462 162.757 124.251 164.426 123.95 166.08C123.623 167.991 123.073 169.857 122.31 171.64C121.752 172.891 120.985 174.038 120.04 175.03C119.616 175.475 119.135 175.862 118.61 176.18C118.008 176.558 117.354 176.848 116.67 177.04C115.56 177.345 114.398 177.413 113.26 177.24C111.863 177.024 110.511 176.578 109.26 175.92C108.359 175.45 107.488 174.925 106.65 174.35C103.903 172.358 101.318 170.151 98.92 167.75C96.62 165.5 94.46 163.21 92.34 160.92C88.13 156.31 84.13 151.63 80.19 147.01L89.43 139Z" fill="#FFC3BD"/>
<path opacity="0.4" d="M51.59 147.35C47.52 151.41 46.24 158.8 45.97 165.22L46.64 165.73C50.5368 161.547 53.2707 156.417 54.57 150.85C54.72 150.25 54.85 149.64 54.96 149.05L51.59 147.35Z" fill="#263238"/>
<path d="M31.87 154L31.58 154.77C31.5103 154.993 31.5134 155.232 31.5889 155.454C31.6644 155.675 31.8084 155.866 32 156L45.6 166.29C45.8249 166.46 46.1066 166.536 46.3863 166.502C46.6659 166.468 46.9217 166.328 47.1 166.11V166.04C47.1894 165.93 47.2562 165.803 47.2965 165.667C47.3369 165.531 47.35 165.388 47.3351 165.247C47.3203 165.106 47.2777 164.969 47.2099 164.844C47.1421 164.719 47.0504 164.609 46.94 164.52L33.58 153.52C33.4455 153.409 33.286 153.332 33.1152 153.295C32.9444 153.259 32.7674 153.265 32.5992 153.312C32.4311 153.359 32.277 153.446 32.15 153.566C32.0229 153.686 31.9269 153.835 31.87 154V154Z" fill="#407BFF"/>
<path d="M92.77 141.26C94.48 149.96 95.98 180.63 91.46 216.01H45.62C45.28 209.4 51.62 164.34 45.02 133.19C49.7751 132.267 54.5853 131.656 59.42 131.36C65.5182 131.005 71.6319 131.005 77.73 131.36C79.73 131.54 81.73 131.83 83.5 132.14C85.7839 132.55 87.8908 133.64 89.5449 135.267C91.199 136.894 92.3231 138.983 92.77 141.26V141.26Z" fill="#263238"/>
<path d="M92.77 141.26C94.48 149.96 95.98 180.63 91.46 216.01H45.62C45.28 209.4 51.62 164.34 45.02 133.19C49.7751 132.267 54.5853 131.656 59.42 131.36C65.5182 131.005 71.6319 131.005 77.73 131.36C79.73 131.54 81.73 131.83 83.5 132.14C85.7839 132.55 87.8908 133.64 89.5449 135.267C91.199 136.894 92.3231 138.983 92.77 141.26V141.26Z" fill="#FFBF00"/>
<path opacity="0.4" d="M94 153L86.94 154.69C86.52 160.01 90.88 166.18 94.44 170.26C94.47 163.63 94.3 157.78 94 153Z" fill="#263238"/>
<path d="M61.32 102.79C61.15 110.79 60.64 115.44 64.32 119.88C69.85 126.56 79.96 123.8 82.51 116.04C84.81 109.04 84.71 97.17 77.19 93.31C75.5477 92.4432 73.7101 92.0137 71.8538 92.0628C69.9975 92.1119 68.1851 92.6378 66.5909 93.5901C64.9967 94.5424 63.6744 95.8889 62.7513 97.5002C61.8282 99.1114 61.3353 100.933 61.32 102.79V102.79Z" fill="#FFC3BD"/>
<path d="M78.58 108.76C78.58 108.76 81.75 111.31 81.81 107.3C81.9128 105.376 81.7683 103.447 81.38 101.56C81.38 101.56 83.43 101.43 83.25 98.02C83.07 94.61 77.86 89.48 69.73 90.74C61.6 92 62.15 96.06 62.15 96.06C62.15 96.06 54.62 96.54 58.86 108.76C61.94 117.65 62.41 119.27 62.41 119.27C62.41 119.27 69.92 120.86 71.59 119.13C73.26 117.4 75.41 107.65 78.58 108.76Z" fill="#263238"/>
<path d="M74.14 107C74.1313 108.987 74.7741 110.923 75.97 112.51C77.57 114.58 79.5 113.51 79.97 111.23C80.42 109.14 80.13 105.55 78.07 104.3C76.01 103.05 74.18 104.62 74.14 107Z" fill="#FFC3BD"/>
<path d="M75.91 143.9C72.12 154.31 95.62 166.9 95.62 166.9L104.62 153.9C104.62 153.9 98 140.9 89.89 135C79.91 127.76 78.79 136 75.91 143.9Z" fill="#263238"/>
<path d="M75.91 143.9C72.12 154.31 95.62 166.9 95.62 166.9L104.62 153.9C104.62 153.9 98 140.9 89.89 135C79.91 127.76 78.79 136 75.91 143.9Z" fill="#FFBF00"/>
<path d="M104.79 152.78L105.3 153.45C105.438 153.639 105.513 153.866 105.513 154.1C105.513 154.334 105.438 154.561 105.3 154.75L96.23 167.06C96.0753 167.271 95.8491 167.42 95.5933 167.477C95.3376 167.534 95.0699 167.496 94.84 167.37L94.7 167.29C94.5659 167.219 94.4482 167.121 94.3546 167.001C94.261 166.882 94.1936 166.744 94.1568 166.597C94.12 166.45 94.1146 166.297 94.141 166.147C94.1674 165.998 94.225 165.856 94.31 165.73L103.01 152.83C103.107 152.685 103.237 152.565 103.389 152.48C103.542 152.396 103.713 152.349 103.887 152.344C104.061 152.339 104.235 152.376 104.392 152.452C104.549 152.528 104.685 152.64 104.79 152.78V152.78Z" fill="#407BFF"/>
<path d="M307.7 113.75H167.23C163.769 113.8 160.454 115.151 157.943 117.533C155.433 119.916 153.911 123.156 153.68 126.61L139.12 397C139.016 398.658 139.254 400.319 139.819 401.881C140.385 403.442 141.266 404.871 142.408 406.077C143.549 407.284 144.927 408.242 146.455 408.893C147.983 409.544 149.629 409.873 151.29 409.86H291.76C295.222 409.812 298.538 408.462 301.049 406.079C303.56 403.696 305.082 400.454 305.31 397L319.87 126.63C319.977 124.971 319.741 123.307 319.177 121.743C318.613 120.179 317.732 118.748 316.59 117.539C315.448 116.331 314.069 115.371 312.54 114.719C311.01 114.067 309.363 113.737 307.7 113.75V113.75Z" fill="#263238"/>
<path d="M186.95 110.25H180.02V111.25H186.95V110.25Z" fill="#407BFF"/>
<path d="M150.7 119.39L149.83 118.89C151.327 116.287 153.478 114.12 156.071 112.604C158.663 111.089 161.607 110.277 164.61 110.25H175.53V111.25H164.61C161.783 111.277 159.012 112.042 156.572 113.47C154.132 114.898 152.108 116.939 150.7 119.39V119.39Z" fill="#407BFF"/>
<path d="M305.08 113.75H164.61C161.149 113.8 157.834 115.151 155.323 117.533C152.813 119.916 151.291 123.156 151.06 126.61L136.51 397C136.404 398.657 136.641 400.318 137.205 401.88C137.77 403.442 138.65 404.87 139.791 406.077C140.932 407.283 142.309 408.242 143.836 408.893C145.364 409.544 147.01 409.873 148.67 409.86H289.15C292.61 409.81 295.924 408.459 298.433 406.076C300.942 403.693 302.462 400.453 302.69 397L317.25 126.63C317.357 124.971 317.121 123.307 316.557 121.743C315.993 120.179 315.112 118.748 313.97 117.539C312.828 116.331 311.449 115.371 309.92 114.719C308.39 114.067 306.743 113.737 305.08 113.75V113.75Z" fill="#407BFF"/>
<path d="M148.79 407.7C147.407 407.714 146.035 407.442 144.761 406.902C143.488 406.362 142.339 405.565 141.388 404.56C140.436 403.556 139.702 402.366 139.231 401.066C138.76 399.765 138.562 398.381 138.65 397L153.2 126.61C153.389 123.732 154.656 121.03 156.748 119.045C158.841 117.06 161.606 115.937 164.49 115.9H305C306.384 115.886 307.757 116.158 309.031 116.699C310.305 117.24 311.454 118.038 312.406 119.043C313.358 120.048 314.092 121.239 314.563 122.541C315.033 123.843 315.23 125.228 315.14 126.61L300.55 397C300.364 399.88 299.098 402.584 297.005 404.571C294.912 406.559 292.146 407.683 289.26 407.72L148.79 407.7Z" fill="white"/>
<path opacity="0.2" d="M154.76 221.5L159.05 141.9C159.145 140.364 159.816 138.921 160.928 137.857C162.04 136.793 163.511 136.187 165.05 136.16H302.15C302.892 136.151 303.628 136.296 304.311 136.586C304.994 136.876 305.61 137.303 306.12 137.842C306.63 138.382 307.023 139.02 307.275 139.719C307.526 140.417 307.63 141.16 307.58 141.9L303.29 221.5C303.195 223.036 302.524 224.479 301.412 225.543C300.3 226.607 298.829 227.213 297.29 227.24H160.19C159.448 227.249 158.712 227.104 158.029 226.814C157.346 226.524 156.73 226.097 156.22 225.558C155.71 225.018 155.317 224.38 155.066 223.681C154.814 222.983 154.71 222.24 154.76 221.5Z" fill="black"/>
<path d="M238.42 125.84H230.42C229.357 125.851 228.323 125.497 227.491 124.836C226.659 124.175 226.079 123.248 225.85 122.21L224.21 114.86H245.28L243.44 121.86C243.154 122.981 242.508 123.977 241.601 124.696C240.694 125.415 239.577 125.817 238.42 125.84V125.84Z" fill="#407BFF"/>
<path opacity="0.5" d="M237.11 120.35C237.065 121.054 236.755 121.715 236.243 122.201C235.732 122.687 235.055 122.961 234.35 122.97C234.011 122.973 233.676 122.907 233.364 122.775C233.052 122.642 232.771 122.447 232.538 122.201C232.305 121.955 232.126 121.664 232.011 121.345C231.896 121.027 231.848 120.688 231.87 120.35C231.915 119.646 232.225 118.985 232.736 118.499C233.248 118.013 233.924 117.739 234.63 117.73C234.969 117.725 235.305 117.79 235.618 117.922C235.93 118.054 236.212 118.249 236.445 118.496C236.678 118.742 236.858 119.034 236.972 119.353C237.087 119.672 237.134 120.012 237.11 120.35Z" fill="white"/>
<path d="M207.86 230.85C197.64 230.85 187.08 230.64 176.73 230.09C176.664 230.087 176.6 230.072 176.54 230.044C176.48 230.017 176.427 229.978 176.382 229.93C176.338 229.881 176.303 229.825 176.28 229.763C176.258 229.701 176.247 229.636 176.25 229.57C176.258 229.436 176.318 229.311 176.417 229.222C176.516 229.132 176.646 229.085 176.78 229.09C219.78 231.36 266.67 227.89 275.63 227.17C275.763 227.159 275.894 227.202 275.995 227.288C276.097 227.374 276.159 227.497 276.17 227.63C276.181 227.763 276.138 227.894 276.052 227.995C275.966 228.097 275.843 228.159 275.71 228.17C268.89 228.72 240.16 230.85 207.86 230.85Z" fill="white"/>
<path d="M235.47 388.184C243.982 379.898 244.518 366.642 236.667 358.577C228.816 350.512 215.551 350.692 207.038 358.978C198.526 367.265 197.99 380.52 205.841 388.585C213.693 396.65 226.958 396.471 235.47 388.184Z" fill="#407BFF"/>
<path d="M206.79 372.56C206.79 372.56 215.33 377.5 218.79 383.87C221.71 378.87 226.08 371.99 236.56 364.22C223.84 369.34 219.13 377.5 219.13 377.5C215.596 374.67 211.301 372.95 206.79 372.56V372.56Z" fill="white"/>
</svg>
